<svg preserveAspectRatio="none" overflow="visible" style="display: block;" width="108" height="108" viewBox="0 0 108 108" fill="none" xmlns="http://www.w3.org/2000/svg">
<g id="Group">
<path id="Vector" d="M54 99C78.8528 99 99 78.8528 99 54C99 29.1472 78.8528 9 54 9C29.1472 9 9 29.1472 9 54C9 78.8528 29.1472 99 54 99Z" stroke="black" stroke-width="0.642857" stroke-dasharray="4.11 4.11"/>
<path id="Vector_2" d="M54 83.5714C70.3318 83.5714 83.5714 70.3318 83.5714 54C83.5714 37.6681 70.3318 24.4286 54 24.4286C37.6681 24.4286 24.4286 37.6681 24.4286 54C24.4286 70.3318 37.6681 83.5714 54 83.5714Z" fill="white" stroke="black" stroke-width="0.642857"/>
<g id="Group_2">
<g id="Vector_3">
</g>
<g id="Group_3">
<path id="Vector_4" d="M54 54V24.4286" stroke="black" stroke-width="0.642857"/>
<path id="Vector_5" d="M54 54L92.9711 76.5" stroke="black" stroke-width="0.642857"/>
<path id="Vector_6" d="M54 54L15.0289 76.5" stroke="black" stroke-width="0.642857"/>
</g>
<g id="Group_4">
<path id="Vector_7" d="M56.5714 21.8571H51.4286V27H56.5714V21.8571Z" fill="white" stroke="black" stroke-width="0.642857"/>
<path id="Vector_8" d="M95.5426 73.9286H90.3997V79.0714H95.5426V73.9286Z" fill="white" stroke="black" stroke-width="0.642857"/>
<path id="Vector_9" d="M17.6003 73.9286H12.4574V79.0714H17.6003V73.9286Z" fill="white" stroke="black" stroke-width="0.642857"/>
</g>
</g>
<path id="Vector_10" d="M54 65.5714C60.3907 65.5714 65.5714 60.3907 65.5714 54C65.5714 47.6093 60.3907 42.4286 54 42.4286C47.6093 42.4286 42.4286 47.6093 42.4286 54C42.4286 60.3907 47.6093 65.5714 54 65.5714Z" fill="white" stroke="black" stroke-width="0.642857"/>
<path id="Vector_11" d="M54 56.5714C55.4202 56.5714 56.5714 55.4202 56.5714 54C56.5714 52.5798 55.4202 51.4286 54 51.4286C52.5798 51.4286 51.4286 52.5798 51.4286 54C51.4286 55.4202 52.5798 56.5714 54 56.5714Z" fill="black"/>
</g>
</svg>
