<svg preserveAspectRatio="none" overflow="visible" style="display: block;" width="25.4937" height="25.4939" viewBox="0 0 25.4937 25.4939" fill="none" xmlns="http://www.w3.org/2000/svg">
<path id="Vector" d="M4.52124 20.9724L0.750231 24.7439M7.34966 23.8008L6.40685 24.7437M1.69281 18.144L0.75 19.0868M11.8918 4.94466L6.05494 4.94466C5.61898 4.94466 5.33119 5.02438 4.95735 5.24868L2.53885 6.69978C1.96134 7.04629 1.67258 7.21954 1.58984 7.43193C1.51781 7.61682 1.53188 7.82419 1.62823 7.99765C1.73891 8.19691 2.04843 8.32956 2.66747 8.59486L7.29937 10.58M20.549 13.6018C20.9418 13.2093 21.2973 12.8069 21.6506 12.3493C22.42 11.3527 23.5373 9.26432 23.9394 8.07129C24.5263 6.3302 24.5852 5.55587 24.7029 4.00722C24.8041 2.67566 24.7314 1.5846 24.3202 1.17343C23.9091 0.762259 22.818 0.689576 21.4864 0.790781C19.9378 0.908487 19.1635 0.967339 17.4224 1.5542C16.2293 1.95633 14.1409 3.07367 13.1444 3.84302C12.6868 4.1963 12.2843 4.55186 11.8918 4.94466C11.0369 5.80023 10.2289 6.83251 8.99972 8.40294L7.84763 9.87485C7.63846 10.1421 7.45702 10.3739 7.29937 10.58C6.86242 11.1511 6.60832 11.5244 6.4534 11.9057C5.99769 13.0276 6.07468 14.2954 6.66277 15.3539C6.93481 15.8435 7.38737 16.2961 8.29247 17.2012C9.19758 18.1063 9.65013 18.5588 10.1398 18.8309C11.1982 19.419 12.4661 19.496 13.5879 19.0402C13.9693 18.8853 14.3425 18.6312 14.9137 18.1943M14.9137 18.1943L16.8988 22.8262C17.1641 23.4452 17.2967 23.7547 17.496 23.8654C17.6695 23.9618 17.8768 23.9758 18.0617 23.9038C18.2741 23.8211 18.4474 23.5323 18.7939 22.9548L20.245 20.5363C20.4693 20.1625 20.549 19.8747 20.549 19.4387L20.549 13.6018M14.9137 18.1943C15.1197 18.0366 15.3516 17.8552 15.6188 17.646L17.0907 16.4939C18.6611 15.2647 19.6934 14.4568 20.549 13.6018" stroke="#F9FAFB" stroke-width="1.5" stroke-linecap="round" stroke-linejoin="round"/>
</svg>
