<svg width="109" height="109" viewBox="0 0 109 109" fill="none" xmlns="http://www.w3.org/2000/svg">
<path d="M28.6332 22.4487C28.4965 22.1448 28.3327 21.8434 28.0037 21.8715C24.4101 24.785 21.311 28.2868 18.8545 32.237C18.9361 32.3938 18.915 32.6057 18.8376 32.9672C18.701 32.9584 18.5609 32.9489 18.4221 32.94C14.9379 38.7998 12.8472 45.5943 12.6408 52.8787C12.5976 54.411 12.6414 55.9259 12.7624 57.421C12.9044 57.6535 12.9957 57.8917 12.8323 58.1598C12.9 58.8433 12.9842 59.5223 13.0849 60.1965C13.2389 60.1398 13.3944 60.0867 13.5503 60.0346C13.4664 60.349 13.3171 60.4698 13.1105 60.3774C14.8785 71.8508 21.3858 81.8321 30.6112 88.1892C30.8196 87.8463 31.0276 87.5025 31.3029 87.0489C31.5866 87.487 31.8284 87.8126 32.0124 88.1684C32.0751 88.2896 32.019 88.4953 31.9684 88.6458C31.9288 88.7626 31.8818 88.8825 31.8354 89.001C33.3824 89.9883 34.9962 90.8802 36.6748 91.6589C41.2698 93.7901 46.3312 95.0931 51.6665 95.3994C51.5569 95.2747 51.5916 95.0723 51.6064 94.8479C51.8341 94.9652 52.0138 95.0579 52.1805 95.1429C52.1858 95.2662 52.161 95.3585 52.1163 95.4234C52.3732 95.4357 52.6286 95.4573 52.8868 95.4648C63.9321 95.7763 74.4499 91.7577 82.5017 84.1477C90.5547 76.5382 95.1608 66.2632 95.4724 55.2179C95.5709 51.7301 95.2287 48.3302 94.5046 45.0688C94.4806 45.0948 94.4564 45.1199 94.4334 45.1456C94.3264 45.0457 94.2208 44.9464 94.1138 44.8466C94.1401 44.8131 94.1663 44.7796 94.1926 44.7461C94.2904 44.8238 94.3883 44.9014 94.4861 44.9791C94.3283 44.2763 94.1557 43.5797 93.9628 42.8914C93.9224 42.9404 93.8829 42.989 93.8421 43.0371C93.7885 42.9802 93.7352 42.9243 93.6825 42.867C93.7563 42.8097 93.8297 42.7515 93.9043 42.6938C93.5886 41.5878 93.2238 40.502 92.819 39.4348C92.7871 39.436 92.7557 39.4359 92.7429 39.4206C92.7194 39.3924 92.7314 39.3345 92.728 39.2894C87.2461 24.8689 73.8751 14.2317 57.7745 12.7898C57.7317 12.883 57.6895 12.975 57.6463 13.0673C57.6024 13.042 57.5181 12.9999 57.5208 12.9934C57.5506 12.9185 57.5891 12.8464 57.6267 12.7748C56.8322 12.7065 56.0325 12.6544 55.2243 12.6317C53.3703 12.579 51.5452 12.6626 49.7484 12.8491C49.7107 13.3391 49.8016 13.7104 50.0513 14.0447C49.8394 14.15 49.6492 14.1817 49.5959 14.2836C49.5373 14.3963 49.4842 14.5197 49.4021 14.5804C51.2926 14.3587 53.2202 14.2643 55.1781 14.3198C55.9142 14.3407 56.6433 14.384 57.3685 14.444C57.2596 14.1158 57.4232 13.9956 57.7975 13.8278C57.6505 14.099 57.5643 14.2576 57.4578 14.4538C62.1685 14.8555 66.6394 16.0734 70.7294 17.9699C80.897 22.6861 88.7095 31.5703 92.0396 42.3569C92.0652 42.3561 92.0843 42.3472 92.1123 42.3497C92.2251 42.5164 92.2264 42.6618 92.1702 42.7908C93.3305 46.7087 93.9065 50.8677 93.785 55.1682C93.725 57.2911 93.4919 59.3824 93.1077 61.432C93.1411 61.4475 93.1791 61.4611 93.1964 61.4821C93.2509 61.5516 93.267 61.7147 93.2218 61.7862C93.157 61.8863 93.0807 61.9717 92.9874 62.0262C91.3713 69.9685 87.3685 77.2217 81.3422 82.9168C73.6184 90.2171 63.5296 94.0725 52.935 93.7737C50.4249 93.7029 47.9795 93.3893 45.6104 92.8747C45.5138 92.9684 45.4087 93.0548 45.2846 93.1263C45.3423 93.0378 45.385 92.9391 45.4249 92.8362C44.2937 92.5851 43.1825 92.2826 42.0906 91.9375C42.0735 91.9985 42.0577 92.0602 42.0397 92.1216C41.9958 92.1094 41.9505 92.0966 41.9056 92.0848C41.922 92.0219 41.9379 91.958 41.9542 91.8951C39.7587 91.1924 37.6452 90.3102 35.6368 89.255C35.618 89.2908 35.6107 89.323 35.5845 89.3619C35.5311 89.2898 35.4904 89.2222 35.4554 89.1554C32.7775 87.7309 30.2792 86.0143 28.011 84.0421C28.0161 84.0756 28.0206 84.1051 28.0265 84.1405C27.7657 83.945 27.6611 83.8614 27.6801 83.7444C22.9077 79.4991 19.1714 74.131 16.8771 68.0702C16.8611 68.1601 16.8515 68.2526 16.8142 68.3328C16.8056 68.3515 16.6792 68.3147 16.5351 68.2928C16.5975 68.1764 16.6234 68.0814 16.6857 68.0278C16.7177 68.0005 16.8035 68.0356 16.8693 68.0485C15.725 65.0224 14.9424 61.824 14.5698 58.5079C14.2602 58.4621 13.9448 58.4154 13.6054 58.3656C13.879 58.05 14.1413 57.7488 14.459 57.3826C14.3368 55.9161 14.2864 54.4299 14.3289 52.9249C14.379 51.1671 14.5539 49.4424 14.8246 47.7508C14.4527 47.4743 14.2614 47.1323 14.4142 46.6567C14.5536 47.0015 14.6944 47.347 14.8339 47.6918C15.8333 41.499 18.2506 35.7919 21.7514 30.9177C21.6949 30.8641 21.6387 30.8116 21.5812 30.7584C21.6041 30.7274 21.6257 30.6958 21.6487 30.6648C21.7146 30.7069 21.7805 30.749 21.8465 30.7911C26.5105 24.3506 33.0536 19.3794 40.6365 16.6482C40.7194 16.3341 40.8301 16.1903 41.0705 16.3283C41.1041 16.347 41.13 16.4336 41.1159 16.473C41.4798 16.3484 41.8481 16.2317 42.2168 16.116C42.171 16.0807 42.1252 16.0455 42.0784 16.0107C42.1616 15.9052 42.2448 15.7997 42.3279 15.6942C42.3681 15.7209 42.4096 15.7482 42.4497 15.7749C42.3846 15.8849 42.3204 15.9945 42.2563 16.1041C43.5815 15.6907 44.934 15.3461 46.3122 15.072C46.418 14.9583 46.5209 14.8458 46.6335 14.725C46.6995 14.8146 46.7579 14.8911 46.8166 14.9708C46.9612 14.9439 47.1043 14.9132 47.2496 14.8881C47.233 14.8398 47.2187 14.7917 47.2181 14.7454C47.215 14.5272 47.1975 14.3085 47.1781 13.9294C47.4298 14.2001 47.6863 14.351 47.7322 14.5494C47.7519 14.6343 47.7592 14.7232 47.7743 14.81C48.249 14.7339 48.725 14.6585 49.2056 14.5995C49.0796 14.5453 49.012 14.3071 48.9604 14.1391C48.85 13.7834 48.7559 13.4123 48.6392 12.9727C47.1366 13.1703 45.6604 13.4533 44.2108 13.8086C44.2083 13.842 44.2049 13.8759 44.2046 13.9095C44.0958 13.9023 44.0054 13.8929 43.9247 13.8807C38.4206 15.2718 33.3402 17.7634 28.944 21.1233C29.0271 21.2967 29.1107 21.4688 29.177 21.6459C29.3241 22.0331 29.2258 22.1437 28.6332 22.4487ZM92.7202 41.845C92.7381 41.7911 92.7563 41.7382 92.7742 41.6844C92.9188 41.7418 93.0631 41.7982 93.2087 41.8552C93.1937 41.9003 93.1777 41.9457 93.1622 41.9921C93.0156 41.9431 92.8677 41.8936 92.7202 41.845ZM79.4993 85.6736C79.6115 85.7864 79.7228 85.8995 79.8351 86.0124C79.8151 86.0216 79.7956 86.0318 79.7756 86.0411C79.6732 85.9286 79.5707 85.8161 79.4679 85.7026C79.479 85.6927 79.4891 85.6831 79.4993 85.6736ZM45.2874 93.1305C45.6294 93.1209 46.0369 93.013 45.9938 93.595C45.5358 93.7777 45.5398 93.2582 45.2859 93.1322L45.2874 93.1305ZM36.3516 90.2717C36.3901 90.3023 36.3738 90.402 36.3864 90.5039C36.2733 90.4811 36.1759 90.4887 36.1339 90.4443C36.0997 90.4086 36.1317 90.3101 36.1338 90.2389C36.2085 90.2472 36.302 90.2326 36.3516 90.2717ZM33.7196 89.0878C33.7457 89.1646 33.7874 89.2426 33.7736 89.2537C33.7168 89.2997 33.6441 89.3252 33.5779 89.3589C33.5622 89.3102 33.5191 89.2393 33.5354 89.2185C33.5802 89.1644 33.6526 89.1326 33.7196 89.0878ZM33.0081 88.3713C33.098 88.6587 33.0678 88.9273 32.8999 89.153C32.8421 89.2308 32.6604 89.2568 32.5471 89.2363C32.4909 89.2258 32.4015 89.0107 32.4327 88.9708C32.5953 88.7614 32.5261 88.3217 33.0081 88.3713ZM28.9067 85.8838C28.5556 85.7502 28.522 85.5446 28.6577 85.2326C28.8966 85.4037 29.064 85.5587 28.9067 85.8838ZM25.7181 82.9945C25.7715 82.9586 25.8803 82.9603 25.9361 82.9936C25.9718 83.0147 25.9861 83.1601 25.9561 83.1843C25.905 83.2258 25.8125 83.2163 25.5783 83.2541C25.6423 83.1284 25.6611 83.032 25.7181 82.9945ZM24.0271 27.206C23.963 27.0604 23.8998 26.9145 23.8366 26.7686C23.8712 26.75 23.9057 26.7315 23.9408 26.7117C24.0295 26.8461 24.1177 26.9818 24.2064 27.1162C24.1463 27.1462 24.0872 27.1759 24.0271 27.206ZM25.2274 25.4115C25.1016 25.3421 24.9276 25.3606 24.7705 25.3386C25.0519 24.9842 25.0519 24.9842 25.7748 25.3283C25.5648 25.6146 25.4138 25.5155 25.2274 25.4115ZM26.8751 24.7857C26.8465 24.6634 26.8179 24.5411 26.7893 24.4188C26.8286 24.4091 26.8679 24.3995 26.9068 24.3889C26.9391 24.5097 26.9727 24.631 27.0054 24.7527C26.9615 24.7643 26.9185 24.7754 26.8751 24.7857ZM27.4834 23.8343C27.5721 23.6476 27.7097 23.4668 27.7376 23.2715C27.7654 23.0731 27.6865 22.8601 27.6377 22.5516C28.2189 23.1431 28.1985 23.3093 27.4834 23.8343ZM34.0311 18.6245C34.0571 18.6668 34.0845 18.7096 34.1105 18.7519C34.0038 18.8184 33.8978 18.8868 33.7867 18.9454C33.7815 18.9486 33.7323 18.8683 33.7039 18.8281C33.8121 18.7598 33.9216 18.6922 34.0311 18.6245Z" fill="#F7941D"/>
<path d="M57.6222 89.8455C56.1122 89.9932 54.5859 90.0567 53.0447 90.0129C52.2549 89.9902 51.472 89.9344 50.6931 89.8619C50.7686 90.0222 50.8429 90.1819 50.9315 90.3661C50.8893 90.5293 50.8159 90.819 50.7452 91.0945C50.6664 91.1052 50.594 91.1133 50.5272 91.1191C51.3502 91.1962 52.1762 91.257 53.0095 91.2802C53.0664 91.2817 53.123 91.2801 53.1807 91.2813C53.2257 91.2066 53.2842 91.1436 53.3588 91.0936C53.5504 90.9652 53.7284 90.9958 53.8411 91.2176C53.8264 91.2399 53.8114 91.2612 53.7967 91.2834C55.2986 91.2948 56.7892 91.2232 58.261 91.0587C57.8656 90.846 57.6098 90.3284 57.6222 89.8455Z" fill="#F7941D"/>
<path d="M49.7921 90.5178C49.7623 90.2187 49.6764 89.9675 49.5358 89.7463C47.6159 89.5067 45.735 89.1094 43.902 88.5735C43.899 88.6688 43.8941 88.7648 43.8838 88.8739C43.7945 88.7355 43.7016 88.6093 43.6087 88.4831C38.0127 86.7943 32.9023 83.7504 28.6722 79.5278C28.5789 79.5585 28.4688 79.5853 28.3285 79.6095C28.3608 79.4935 28.4002 79.3919 28.4432 79.2964C28.2672 79.1179 28.0862 78.9457 27.914 78.7635C24.7575 75.4231 22.3217 71.5869 20.66 67.4457C20.5294 67.3566 20.4243 67.2138 20.3477 66.9826C20.2579 66.7114 19.8932 66.5314 19.6129 66.2725C19.7513 66.1043 19.8937 65.9323 20.0342 65.7611C19.4979 64.1998 19.0708 62.5991 18.7549 60.9689C18.277 60.5316 18.3674 60.1648 18.5432 59.7953C18.3862 58.8101 18.2671 57.8147 18.1917 56.8122C18.132 56.7459 18.071 56.6791 18.0104 56.6132C18.0351 56.5836 18.061 56.5546 18.0856 56.525C18.114 56.5468 18.1434 56.5683 18.1722 56.5911C18.0907 55.4159 18.0665 54.2303 18.0997 53.0372C18.248 47.7884 19.5159 42.7469 21.7681 38.1724C21.5155 37.7259 21.3234 37.2502 21.377 36.6488C21.6276 36.7275 21.8267 36.7884 22.1221 36.8812C21.752 37.2277 21.8054 37.5604 21.9027 37.8923C22.9976 35.7173 24.3186 33.6506 25.8517 31.7216C25.8783 31.6783 25.9001 31.6445 25.9296 31.5902C26.5497 30.8545 27.1864 30.1228 27.8542 29.414C27.7924 29.395 27.7447 29.3789 27.7265 29.3529C27.6865 29.2926 27.6872 29.2047 27.6713 29.1291C27.7415 29.1262 27.8474 29.0946 27.875 29.1276C27.9088 29.1678 27.9269 29.2328 27.9484 29.3115C28.212 29.0347 28.4858 28.7644 28.7587 28.4945C28.6977 28.3141 28.6375 28.1334 28.5768 27.9541C28.6151 27.9394 28.6534 27.9248 28.6926 27.9097C28.7566 28.0629 28.8215 28.2157 28.8855 28.3689C29.0418 28.215 29.193 28.0567 29.3531 27.9044C33.6643 23.8293 38.7988 20.9457 44.3559 19.3966C44.2975 19.1438 44.3362 18.8458 44.1656 18.6067C44.1349 18.669 44.1175 18.7475 44.1252 18.8611C44.1306 18.9454 43.8318 19.0681 43.6601 19.1396C43.3858 19.2534 43.1808 19.1386 43.0036 18.8493C43.137 18.6896 43.2695 18.5228 43.4041 18.3583C37.8872 20.0001 32.7894 22.9151 28.4842 26.9835C28.0502 27.393 27.6303 27.813 27.2184 28.2395C27.3072 28.5111 27.3898 28.7647 27.4974 29.0978C27.1931 28.9806 26.939 28.8807 26.7738 28.7204C20.6081 35.3451 17.0943 43.8732 16.8364 53.0014C16.7433 56.2968 17.0862 59.5353 17.8227 62.6608C17.8963 62.69 17.9638 62.7175 18.0505 62.7521C17.9813 62.8075 17.9323 62.8645 17.886 62.9202C19.2114 68.367 21.7619 73.4513 25.4136 77.8369C25.4479 77.773 25.4787 77.7085 25.5194 77.6496C25.5275 77.6377 25.648 77.7049 25.717 77.736C25.6648 77.8299 25.6122 77.9229 25.5599 78.0168C26.0233 78.5659 26.4988 79.1079 26.9961 79.6345C30.2973 83.1272 34.1593 85.8979 38.3914 87.8614C40.0701 88.6401 41.8071 89.29 43.5898 89.8087C43.5995 89.7928 43.6101 89.7766 43.6178 89.7637C43.6653 89.795 43.7137 89.8259 43.7607 89.8563C45.8124 90.4429 47.9256 90.8453 50.0787 91.0736C49.9032 90.9964 49.8234 90.8282 49.7921 90.5178ZM42.871 18.7502C42.8991 18.8187 42.9263 18.8875 42.9544 18.956C42.8312 19.0087 42.71 19.0715 42.582 19.1046C42.5624 19.1094 42.5073 18.9753 42.4689 18.9056C42.6033 18.8537 42.7376 18.8018 42.871 18.7502ZM34.7924 22.9541C34.8862 22.7956 34.9835 22.6324 35.0954 22.4416C35.1101 23.3513 35.1101 23.3512 34.4804 23.479C34.5177 23.4172 34.5521 23.3588 34.5865 23.3003C34.5587 23.3301 34.5295 23.3616 34.4997 23.3943C34.5287 23.0938 34.5466 22.9005 34.5732 22.6204C34.7376 22.7496 34.7952 22.8557 34.7924 22.9541ZM25.0859 31.5259C25.0521 31.7278 25.0183 31.9298 24.9812 32.1526C24.6114 31.9077 24.6114 31.9077 25.0859 31.5259ZM19.5915 42.8704C19.4225 42.3745 19.4951 41.9933 19.5781 41.6111C19.7292 41.9869 19.9998 42.359 19.5915 42.8704ZM17.5835 48.9975C18.0473 48.9054 18.0473 48.9054 18.2258 49.6245C17.964 49.3688 17.7963 49.2052 17.5835 48.9975ZM19.228 63.9323C19.1501 63.8346 19.0717 63.7359 18.9934 63.6373C19.024 63.6118 19.0555 63.5858 19.0861 63.5603C19.1683 63.6552 19.2499 63.7514 19.3312 63.8467C19.2973 63.8746 19.2625 63.903 19.228 63.9323Z" fill="#F7941D"/>
<path d="M48.2109 18.3211C48.1506 18.348 48.0899 18.374 48.0296 18.4009C47.8716 18.095 47.7101 17.7808 47.5052 17.3817C46.8227 17.502 46.1452 17.6451 45.473 17.8033C45.525 17.9116 45.5762 18.0204 45.6282 18.1287C45.2982 18.0805 45.2239 18.0602 45.2944 17.8475C45.0711 17.9013 44.8474 17.9542 44.6247 18.0122C44.6786 18.1144 44.7273 18.2198 44.7811 18.322C44.5922 18.4147 44.3302 18.3926 44.1995 18.5457C44.7387 18.6951 44.9095 18.8346 44.8564 19.2608C48.1471 18.3948 51.5799 17.9905 55.0763 18.0887C55.1483 18.0904 55.2195 18.098 55.2906 18.1001C55.3065 18.073 55.3215 18.0463 55.3378 18.0202C55.3715 18.0496 55.4061 18.0786 55.4398 18.108C60.2752 18.292 64.9338 19.4145 69.2015 21.3937C69.2549 21.4183 69.3069 21.4477 69.3603 21.4723C69.3659 21.3965 69.3889 21.3157 69.4573 21.2216C69.6672 21.3484 69.7275 21.4847 69.6994 21.64C73.5911 23.5196 77.1515 26.106 80.2086 29.3412C86.8095 36.3252 90.2946 45.4623 90.0233 55.0684C89.752 64.6745 85.7562 73.6005 78.7721 80.2013C73.0505 85.6092 65.8828 88.9223 58.1963 89.7956C58.3705 90.2224 58.7531 90.5118 58.9131 90.9066C58.8963 90.9448 58.8746 90.9603 58.8554 90.9898C65.4353 90.1493 71.6314 87.5789 76.8964 83.4785C76.9051 83.4155 76.9845 83.3429 77.118 83.2232C77.1275 83.2409 77.1366 83.2577 77.1469 83.2751C78.0031 82.5959 78.839 81.883 79.6424 81.1228C85.9412 75.1698 89.8898 67.3897 90.9888 58.9096C90.955 58.864 90.9211 58.8184 90.8873 58.7729C90.9301 58.7456 90.9729 58.7182 91.0162 58.6918C91.1626 57.5085 91.2557 56.3136 91.2896 55.1062C91.5702 45.1622 87.9624 35.7026 81.1286 28.4726C77.2772 24.3982 72.6606 21.3061 67.5847 19.3334C67.4976 19.4319 67.4057 19.5345 67.3068 19.6465C67.2314 19.4655 67.1643 19.3126 67.0973 19.1574C65.9793 18.7409 64.8411 18.378 63.684 18.0716C63.6473 18.2456 63.5801 18.4321 63.6016 18.6265C63.292 18.278 63.1796 18.149 63.2293 17.9567C60.838 17.3539 58.3715 16.9863 55.8552 16.8662C55.9741 17.1557 56.0693 17.4506 56.087 17.786C55.6217 17.4269 55.3471 17.1451 55.2187 16.8324C55.1825 16.8311 55.1464 16.8275 55.1106 16.8271C52.5513 16.7549 50.026 16.9444 47.5612 17.376C48.003 17.6227 48.1229 17.9648 48.2109 18.3211ZM63.0699 89.591C63.0943 89.008 63.0943 89.008 63.6626 88.873C63.4837 89.0902 63.3039 89.3078 63.0699 89.591ZM64.8682 89.3605C64.7722 89.0821 64.6918 88.7995 64.5883 88.4658C65.1702 88.6009 65.117 89.0951 65.3345 89.4404C65.1288 89.5476 64.9622 89.6343 64.8682 89.3605ZM80.5578 79.1189C80.5987 79.4739 80.6198 79.649 80.6559 79.9607C80.2877 79.7011 80.2631 79.5253 80.5578 79.1189ZM88.9482 64.2598C89.0921 64.418 89.236 64.5762 89.471 64.8353C88.9719 64.836 88.868 64.6224 88.804 64.3666C88.8519 64.3306 88.9003 64.2957 88.9482 64.2598ZM77.6943 26.4247C77.4514 26.1017 77.0935 25.812 77.355 25.2116C77.6461 25.6467 77.6753 26.0336 77.6943 26.4247ZM51.1744 17.6403C51.018 17.3542 50.9241 17.1809 50.8306 17.0085C51.1089 17.078 51.2735 17.2104 51.1744 17.6403Z" fill="#F7941D"/>
<path d="M44.4013 53.7752C44.3916 54.1122 44.4005 54.4447 44.4242 54.7734C44.5071 54.749 44.5658 54.7314 44.5702 54.7393C44.6083 54.8058 44.6296 54.8814 44.6555 54.9551C44.5897 54.9713 44.5016 55.0226 44.4632 54.9973C44.9099 59.7628 48.8616 63.568 53.7877 63.7071C55.072 63.744 56.3028 63.5218 57.437 63.0982C57.423 62.8932 57.4696 62.6881 57.6526 62.4703C57.7539 62.6092 57.8532 62.7457 57.9529 62.8831C59.2552 62.3083 60.4133 61.4641 61.3399 60.4036C61.143 60.1742 61.1749 59.8466 61.0988 59.5611C61.6241 59.4556 61.8071 59.4853 61.7743 59.8556C62.5476 58.8299 63.124 57.6484 63.4407 56.3584C63.4247 56.3325 63.4139 56.3035 63.4159 56.2821C63.4249 56.1908 63.4567 56.1313 63.501 56.0839C63.5049 56.0672 63.5062 56.0493 63.5102 56.0326C63.4948 55.9924 63.4836 55.9678 63.4651 55.9203C63.4841 55.9374 63.5016 55.9539 63.5206 55.971C63.5517 55.8177 63.5811 55.6629 63.6047 55.5073C63.224 55.4096 63.2413 55.1646 63.4814 54.4856C63.5599 54.503 63.63 54.5186 63.7015 54.5346C63.7046 54.4631 63.716 54.3935 63.7186 54.3211C63.8612 49.2584 60.0811 45.0023 55.1356 44.4528C55.3921 44.7799 55.1728 45.0224 55.1785 45.26C55.125 45.2614 55.0702 45.2623 55.0158 45.2641C55.0071 45.0244 54.9984 44.7794 54.9862 44.4417C54.7689 44.4207 54.5537 44.3966 54.3326 44.3901C53.8471 44.3765 53.3733 44.41 52.9054 44.4659C53.1593 45.1552 53.4682 45.7364 53.4491 46.461C52.6412 45.7257 52.4587 45.3077 52.71 44.49C51.5875 44.6472 50.526 44.9923 49.5595 45.5027C49.6995 45.7727 49.8335 46.0463 49.9638 46.3215C49.9666 46.2414 49.9686 46.1541 49.9643 46.0542C50.6342 46.5402 51.1333 46.9028 51.7724 47.3668C51.4871 47.4169 51.3439 47.492 51.2642 47.4479C50.8973 47.2494 50.5373 47.0362 50.1907 46.8056C50.2185 46.8655 50.246 46.9245 50.2748 46.984C50.245 46.9984 50.2139 47.0122 50.1842 47.0266C49.918 46.8127 49.6505 46.5983 49.4228 46.415C49.3432 46.1764 49.2664 45.9474 49.1874 45.7128C48.2906 46.2378 47.4803 46.897 46.7971 47.6738C47.1342 47.6575 47.1383 47.7174 47.1524 48.3257C46.7592 48.2817 46.7281 48.2718 46.6886 47.807C45.3203 49.424 44.4655 51.4938 44.4013 53.7752ZM45.9922 52.5608C45.9237 52.2701 45.9686 52.0452 46.1776 51.8696C45.9552 51.7361 45.7542 51.6338 45.9632 51.2528C46.0436 51.4749 46.1072 51.651 46.1705 51.8261C46.2024 52.1145 46.2326 52.3616 45.9897 52.5284C46.3202 52.704 46.2446 53.0518 46.348 53.3088C46.0819 53.1294 45.8497 52.935 45.9922 52.5608ZM46.6603 53.44C46.5967 53.1483 46.5552 52.9577 46.4756 52.5926C46.9006 52.9381 46.9006 52.938 46.6603 53.44ZM45.9497 55.1923C46.3784 55.1622 46.3784 55.1622 46.5331 55.7418C46.0872 55.8536 46.0872 55.8536 45.9497 55.1923ZM45.9493 57.0842C46.0142 57.0738 46.0795 57.0643 46.1444 57.0538C46.2223 57.4121 46.2993 57.7707 46.4031 58.2524C45.9548 57.869 45.941 57.48 45.9493 57.0842ZM47.3909 53.8977C47.4585 53.8808 47.5294 53.8452 47.546 53.8622C47.5948 53.9124 47.6214 53.9825 47.6571 54.0457C47.5975 54.0637 47.5075 54.1158 47.4835 54.0943C47.4347 54.0517 47.4207 53.9677 47.3909 53.8977ZM47.8452 57.6311C48.1081 57.7555 48.3724 57.8804 48.7124 58.0424C48.2452 58.163 48.2426 58.1673 47.8452 57.6311ZM48.9638 57.1857C48.7922 56.8205 48.6826 56.5877 48.5331 56.2686C49.0479 56.2637 49.2519 56.4815 49.3127 56.8295C49.3258 56.9009 49.1495 57.0035 48.9638 57.1857ZM49.1142 55.6224C49.8602 55.7225 50.3121 56.1596 50.5866 56.9096C49.9404 56.589 49.4399 56.2075 49.1142 55.6224ZM49.1877 58.7023C49.159 58.6666 49.1622 58.6058 49.1511 58.5552C49.2144 58.5671 49.2798 58.5737 49.3381 58.5974C49.3472 58.6012 49.3226 58.6859 49.3141 58.7337C49.2695 58.725 49.2086 58.7294 49.1877 58.7023ZM51.0152 58.1324C50.8221 58.4333 50.6538 58.6949 50.4495 59.0134C50.2979 58.868 50.2504 58.7103 50.2311 58.5528C50.1377 58.6149 50.0475 58.6822 49.9513 58.7401C49.7278 58.8751 49.5033 58.7522 49.3971 58.5277C49.3653 58.4608 49.3485 58.3855 49.332 58.3112C49.3165 58.3684 49.3002 58.4259 49.2847 58.4831C49.173 58.4295 49.0622 58.3755 48.9508 58.3229C48.9633 58.2875 48.9771 58.2526 48.9896 58.2172C49.1024 58.2444 49.2148 58.2707 49.3285 58.2975C49.3051 58.1904 49.2868 58.0801 49.2624 57.9733C49.5564 57.9153 49.9389 58.1334 50.042 57.6262C50.0589 57.5436 50.3781 57.5022 50.5628 57.4782C50.8572 57.4395 51.0262 57.6036 51.1218 57.9286C51.0683 57.9668 51.0142 58.0063 50.9607 58.0445C50.9774 58.0745 50.9977 58.1082 51.0152 58.1324ZM52.3338 55.3597C52.8676 55.4724 52.8763 55.7779 52.832 56.1648C52.3031 56.0642 52.5304 55.6411 52.3338 55.3597ZM52.8573 54.2626C52.8923 54.2504 52.926 54.2376 52.9609 54.2254C53.0273 54.4371 53.0937 54.6487 53.1601 54.8604C53.1347 54.8697 53.1103 54.8787 53.0849 54.888C53.0089 54.6792 52.9333 54.4714 52.8573 54.2626ZM50.0118 62.02C49.9166 61.9672 49.819 61.9165 49.7293 61.856C49.7233 61.852 49.7677 61.7732 49.7889 61.7299C49.8863 61.7829 49.9847 61.8355 50.0821 61.8884C50.0582 61.9329 50.0348 61.976 50.0118 62.02ZM50.9455 61.1426C50.9132 61.1061 50.8809 61.0696 50.8486 61.0331C50.9473 60.9364 51.0469 60.8393 51.1451 60.7417C51.1865 60.7949 51.2269 60.8486 51.2682 60.9019C51.1618 60.9824 51.0541 61.0623 50.9455 61.1426ZM53.9709 61.8287C53.9287 61.739 53.8796 61.6511 53.8507 61.557C53.8449 61.5378 53.9162 61.4955 53.9531 61.4642C54.0142 61.5656 54.074 61.6664 54.1341 61.7682C54.0797 61.7883 54.0253 61.8085 53.9709 61.8287ZM57.6308 62.1171C57.4616 62.1843 57.2629 62.1849 57.0523 62.2011C57.0361 62.2932 57.0206 62.3871 57.0046 62.4823C56.3365 62.6323 56.112 62.5516 56.0083 61.9834C55.9276 61.5419 55.7426 61.2071 55.416 60.9488C55.5939 60.7925 55.7685 60.7122 55.7938 60.6002C55.8379 60.3994 55.845 60.1586 56.0904 60.193C56.2258 60.212 56.3534 60.4255 56.4469 60.5741C56.6255 60.8564 56.798 61.1607 56.9943 61.5017C57.175 61.4837 57.3502 61.468 57.5173 61.488C57.6476 61.5026 57.8385 61.6437 57.862 61.7562C57.8834 61.8609 57.7459 62.0709 57.6308 62.1171ZM57.6805 57.4893C58.3051 57.5149 58.3179 57.5302 58.4721 58.3771C58.7042 58.3078 58.9298 58.2411 59.1907 58.1631C58.975 58.5749 58.7715 58.9612 58.54 59.4032C58.2922 59.2077 58.0935 59.0504 57.8939 58.8935C57.6235 59.1958 57.9153 59.343 57.9706 59.5355C58.0308 59.7453 58.1038 59.9521 58.2219 60.3133C57.909 60.1175 57.6216 60.0388 57.5256 59.8577C57.2673 59.3735 57.0916 58.8456 56.8715 58.3069C57.1936 58.3227 57.4563 58.3359 57.8714 58.3568C57.7986 58.0267 57.7402 57.761 57.6805 57.4893ZM63.0322 57.1142C62.9581 57.1522 62.8831 57.1906 62.8089 57.2286C62.698 57.0136 62.5861 56.7991 62.3966 56.4325C62.943 56.5811 63.0757 56.7883 63.0322 57.1142ZM62.0266 56.9293C62.0102 56.734 61.9924 56.538 61.9674 56.2456C62.3628 56.4713 62.2782 56.6866 62.0266 56.9293ZM60.8775 56.6002C60.9781 56.948 61.0481 57.1896 61.1325 57.4792C60.6447 57.326 60.6447 57.326 60.8775 56.6002ZM61.4452 56.019C61.3818 56.0461 61.3193 56.0729 61.2118 56.1192C61.172 55.996 61.1424 55.9055 61.1133 55.8136C61.1784 55.7956 61.2796 55.7421 61.3008 55.7648C61.3661 55.8342 61.3997 55.9317 61.4452 56.019ZM61.4436 55.157C61.1145 54.7029 61.1145 54.703 61.4888 54.293C61.732 54.6061 61.7136 54.872 61.4436 55.157ZM61.3219 54.1259C61.3392 54.1155 61.4266 54.231 61.4816 54.2884C61.3663 54.3736 61.2497 54.4582 61.1344 54.5434C61.0895 54.484 61.0449 54.4256 61.0009 54.3658C61.1066 54.2835 61.2062 54.1918 61.3219 54.1259ZM60.5073 55.7436C60.402 56.0268 60.3338 56.2083 60.2354 56.4714C59.9273 56.0607 60.1872 55.9486 60.5073 55.7436ZM59.4642 57.1417C59.3215 56.8705 58.7235 56.8912 59.0127 56.3422C58.877 56.1461 58.7544 56.0029 58.6324 55.8584C59.0594 55.8085 59.0691 55.811 58.9996 56.2892C59.2113 56.5731 59.4093 56.8053 59.6083 57.0371C59.5599 57.0721 59.5125 57.1067 59.4642 57.1417ZM60.2182 53.5522C60.2691 53.5972 60.3024 53.6624 60.3453 53.7248C60.2764 53.7596 60.2321 53.781 60.1883 53.8033C60.1571 53.7405 60.1209 53.6786 60.1012 53.6121C60.0987 53.6034 60.206 53.541 60.2182 53.5522ZM61.6655 49.0845C61.6335 49.2198 61.609 49.3574 61.5608 49.4875C61.5557 49.5015 61.4219 49.4678 61.3478 49.456C61.3839 49.3147 61.4195 49.1725 61.4556 49.0312C61.5252 49.0481 61.5952 49.0658 61.6655 49.0845ZM60.2206 52.8972C60.0863 52.4885 59.994 52.2086 59.8402 51.7421C60.2924 52.2245 60.2924 52.2244 60.2206 52.8972ZM58.2913 52.3165C58.2816 52.3875 58.2944 52.4817 58.2541 52.5231C58.2075 52.5704 58.1137 52.571 57.9887 52.6062C58.0188 52.49 58.015 52.3911 58.06 52.3585C58.1173 52.3166 58.2129 52.3282 58.2913 52.3165ZM59.5639 47.8233C59.5763 47.9771 59.5886 48.1309 59.6019 48.2844C59.5594 48.2889 59.516 48.2937 59.4736 48.2982C59.459 48.1442 59.4434 47.9906 59.4285 47.8356C59.4726 47.8326 59.5183 47.828 59.5639 47.8233ZM58.3358 48.3233C58.3304 48.8498 58.1815 49.1953 57.8186 49.5043C57.6822 48.7376 57.7376 48.6014 58.3358 48.3233ZM58.0454 47.9398C58.0511 47.9591 58.0569 47.9784 58.0639 47.9982C58.0326 47.9797 58.0376 47.9603 58.0454 47.9398C58.0067 47.8141 57.9658 47.6828 57.911 47.5075C58.2864 47.6398 58.1006 47.8004 58.0454 47.9398ZM58.2551 45.9338C58.3122 45.9071 58.4796 45.9962 58.5144 46.0705C58.6584 46.379 58.5707 46.5998 58.2464 46.6973C58.1698 46.6369 58.1056 46.6125 58.0887 46.5686C57.9915 46.3188 57.9612 46.0685 58.2551 45.9338ZM55.7647 46.2138C55.7977 46.2467 55.8311 46.2806 55.8641 46.3136C55.7643 46.4075 55.664 46.5027 55.5642 46.5967C55.5361 46.5704 55.5076 46.5432 55.48 46.5156C55.5749 46.415 55.6698 46.3144 55.7647 46.2138ZM52.07 51.3741C51.9439 51.1881 51.8178 51.0021 51.6581 50.766C52.134 50.8008 52.1341 50.8008 52.07 51.3741ZM51.8286 49.0172C51.6287 48.8884 51.4279 48.7601 51.1458 48.5786C51.7256 48.3082 51.7701 48.6693 51.8286 49.0172ZM50.6871 49.9994C50.7234 50.0299 50.7008 50.13 50.7062 50.238C50.6007 50.2154 50.5011 50.2228 50.4732 50.1813C50.4408 50.1341 50.4718 50.0435 50.4754 49.9707C50.5475 49.9778 50.6411 49.961 50.6871 49.9994ZM50.5218 52.3083C49.9426 52.1007 49.8726 51.683 49.8189 51.0413C50.3535 51.4272 50.5937 51.7436 50.5218 52.3083ZM47.9787 53.8758L51.8141 52.3278C51.8581 52.1768 51.9268 51.981 52.024 51.7044C52.1348 51.874 52.1817 52.0277 52.196 52.1732L53.3476 51.7078C53.4741 47.762 54.2224 48.3152 54.2224 48.3152C54.2224 48.3152 54.9997 47.8047 54.904 51.7519L56.8166 52.6529C56.8169 52.6247 56.8172 52.5964 56.8175 52.5682C56.8805 52.5715 56.9435 52.5749 57.0064 52.5782C57.0012 52.6312 56.9968 52.6838 56.9921 52.7354L59.6634 53.994C59.7063 54.0142 60.1418 54.2192 60.1418 54.2192C60.1418 54.2192 60.4299 54.5679 59.675 54.6433C59.7415 54.816 59.8264 54.9833 60.0157 55.0861C59.4098 55.0927 59.1826 55.0239 59.1031 54.6511C58.3232 54.6157 57.0047 54.4167 54.7917 53.8898C54.7768 54.0959 54.7584 54.3143 54.7398 54.5349C54.7589 54.513 54.7771 54.4915 54.7962 54.4696C54.8981 54.565 55 54.6605 55.1019 54.7559C55.0871 54.7804 55.0728 54.8035 55.0589 54.8276C54.9519 54.7407 54.8445 54.653 54.7375 54.5661C54.6653 55.4195 54.5701 56.3829 54.4417 57.4864L56.5714 59.5295C56.5714 59.5295 57.5798 60.6689 54.1253 58.8087C54.111 58.8502 54.0952 58.8935 54.0774 58.9397C53.9181 59.3705 53.8431 59.8327 53.7135 60.3648C53.655 60.3488 53.5114 60.3256 53.5126 60.31C53.5358 59.8215 53.5609 59.3324 53.6179 58.8473C50.1941 60.4371 51.2411 59.3801 51.2411 59.3801L53.4839 57.4602C53.4302 56.558 53.3941 55.7567 53.369 55.0243C52.9681 54.6193 52.9587 54.2437 53.3408 54.0132C53.3397 53.9607 53.3383 53.9018 53.3376 53.8502C46.9317 54.9987 47.9787 53.8758 47.9787 53.8758ZM57.6796 56.4735C57.1442 56.1517 57.1442 56.1517 57.3777 55.4699C57.8118 55.7608 57.6854 56.1295 57.6796 56.4735ZM55.9389 57.918C55.8893 57.9211 55.8397 57.9241 55.7902 57.9272C55.7885 57.7992 55.7867 57.6713 55.785 57.5434C55.8255 57.5419 55.8665 57.5391 55.9066 57.5367C55.9174 57.6631 55.9277 57.7907 55.9389 57.918ZM48.9292 51.1915C48.9452 51.2855 48.9268 51.3936 48.8898 51.4823C48.8788 51.5084 48.7578 51.49 48.6882 51.4916C48.685 51.3707 48.6828 51.2495 48.6779 51.0612C48.815 51.1293 48.9228 51.152 48.9292 51.1915ZM50.167 48.1482C50.0635 48.2675 49.9781 48.3674 49.8599 48.5035C49.551 48.2541 49.4636 47.9571 49.4169 47.4931C49.7239 47.7616 49.9345 47.9453 50.167 48.1482ZM48.5806 48.7867C48.6351 48.8378 48.6478 48.9321 48.6765 49.0046C48.5188 49.0153 48.4328 49.0323 48.4282 49.0212C48.4027 48.9484 48.3955 48.8703 48.3823 48.7935C48.4517 48.7888 48.547 48.7551 48.5806 48.7867ZM47.756 50.6431C47.5293 50.5308 47.3017 50.4189 46.9305 50.2362C47.4522 50.1376 47.6054 50.3871 47.756 50.6431ZM45.9502 50.1998C45.9906 50.127 46.0526 50.0411 46.1386 49.9214C46.1436 50.0707 46.1479 50.1943 46.1519 50.3278C46.2861 50.436 46.3713 50.5804 46.3273 50.8179C46.4473 51.0919 46.4429 51.3207 46.2694 51.5325C46.5124 51.6241 46.7287 51.6876 46.5923 52.1004C46.4729 51.8965 46.3782 51.7343 46.2842 51.574C46.2004 51.296 46.1265 51.0582 46.3356 50.8513C46.2575 50.8033 46.2102 50.7698 46.1653 50.7342C46.1657 50.7535 46.1668 50.7693 46.1675 50.7895C45.9488 50.5334 45.8651 50.4348 45.9093 50.2923C45.8888 50.2424 45.8705 50.1926 45.8428 50.1488C45.8802 50.1637 45.9138 50.1823 45.9502 50.1998ZM45.2951 53.0244C44.7644 53.0272 44.6586 52.7539 44.5569 52.4746C44.7596 52.626 44.9623 52.7773 45.2951 53.0244Z" fill="#F7941D"/>
<path d="M45.2598 62.3595C43.2925 60.2777 42.1522 57.6272 41.9804 54.8027C41.8959 54.6969 41.8151 54.595 41.7322 54.4906C41.8134 54.4249 41.8901 54.3642 41.9706 54.2998C41.9669 54.1013 41.9529 53.9038 41.9583 53.7038C41.9814 52.8835 42.0873 52.0779 42.2677 51.2957C42.0737 50.997 42.0147 50.711 42.1349 50.3352C42.2824 50.4206 42.3815 50.5171 42.4562 50.6227C42.8043 49.4355 43.3292 48.3129 44.0238 47.285C43.7352 47.1744 43.5029 47.0168 43.3288 46.8061C41.9617 48.8236 41.1844 51.1849 41.1139 53.6797C41.0954 54.3165 41.1393 54.9449 41.2112 55.5673C41.354 55.6967 41.4969 55.8261 41.6311 55.9634C41.6962 56.0297 41.6013 56.2514 41.5535 56.5877C41.4682 56.4985 41.392 56.4184 41.3125 56.3353C41.6918 58.4725 42.6083 60.47 43.9916 62.1776C44.0761 62.1807 44.1667 62.1932 44.2733 62.2316C44.2301 62.2764 44.1862 62.3171 44.1435 62.3552C44.3087 62.5522 44.4678 62.7528 44.6454 62.9404C44.9856 63.3001 45.3472 63.6305 45.7185 63.9451C45.6568 63.5369 45.5127 63.1334 45.6306 62.7174C45.5095 62.5964 45.3796 62.4854 45.2598 62.3595ZM42.701 48.7838C42.6849 48.7234 42.6687 48.6631 42.6522 48.6017C42.6996 48.6039 42.7594 48.589 42.7917 48.6125C42.8228 48.6355 42.8245 48.6975 42.8395 48.7421C42.7936 48.7566 42.7473 48.7702 42.701 48.7838ZM41.5554 52.5752C41.5253 52.5389 41.5664 52.4442 41.5798 52.3371C41.6799 52.3782 41.7786 52.3895 41.7985 52.4354C41.8214 52.4887 41.7754 52.5714 41.759 52.6419C41.6878 52.6214 41.5928 52.6215 41.5554 52.5752ZM43.8163 61.6085C43.8118 61.6158 43.7336 61.5755 43.6439 61.5388C43.6899 61.4507 43.7245 61.3586 43.784 61.2877C43.7978 61.2712 43.896 61.3261 43.9545 61.3474C43.9104 61.4347 43.8687 61.5254 43.8163 61.6085Z" fill="#F7941D"/>
<path d="M45.8283 44.344C45.6882 44.4372 45.5775 44.4308 45.4872 44.3663C45.3811 44.4607 45.2686 44.5447 45.1649 44.6424C44.5785 45.1967 44.0567 45.8002 43.591 46.4379C43.7946 46.6732 43.9534 46.9333 44.0684 47.2266C44.1927 47.0448 44.3281 46.8692 44.4636 46.6936C44.2281 46.5676 44.1391 46.3695 44.1405 46.1149C44.1404 46.0436 44.3335 45.9741 44.5483 45.8286C44.606 46.0481 44.6526 46.2246 44.6982 46.3962C44.8401 46.2233 44.9868 46.0539 45.14 45.8872C45.0657 45.709 44.9865 45.5189 44.8956 45.3C45.1019 45.4207 45.2268 45.5564 45.3208 45.6984C45.3965 45.6197 45.4703 45.5386 45.5487 45.461C45.3677 45.331 45.1804 45.196 44.9505 45.031C45.3666 45.0017 45.4267 44.9954 45.625 45.381C45.6666 45.3401 45.7035 45.2958 45.7451 45.2549C48.0946 43.034 51.1695 41.861 54.4013 41.9521C56.0724 41.9988 57.6826 42.3819 59.154 43.0641C60.5296 43.7024 61.7848 44.6031 62.8572 45.7378C65.0782 48.0872 66.2512 51.1621 66.1601 54.394C66.0972 56.597 65.4409 58.687 64.2924 60.5023C64.4139 60.793 64.6311 61.0086 64.8306 61.2283C66.171 59.2249 66.9353 56.8874 67.0045 54.418C67.0953 51.209 66.0083 48.1539 63.9537 45.7199C64.0406 46.0474 64.2187 46.2889 63.9877 46.5794C63.4382 46.1521 63.4232 46.1313 63.867 45.6193C63.7348 45.466 63.6117 45.3058 63.4711 45.1581C61.096 42.6439 57.8828 41.2057 54.4245 41.1081C54.2003 41.1018 53.9785 41.1171 53.7553 41.1212C53.6856 41.3596 53.612 41.6147 53.5252 41.9141C53.2129 41.6326 52.9548 41.4121 52.7224 41.1832C52.2245 41.2342 51.7324 41.3152 51.2473 41.4214C50.9146 41.6327 50.6455 42.0091 50.1122 41.7265C49.9192 41.7885 49.7249 41.8445 49.5354 41.9147C49.6135 42.1129 49.6118 42.372 49.741 42.5838C49.2796 42.3895 49.1348 42.3214 49.1125 42.0906C47.9346 42.5786 46.8311 43.2425 45.8288 44.0714C45.8543 44.1518 45.8593 44.2405 45.8283 44.344Z" fill="#F7941D"/>
<path d="M62.3731 62.8462C60.9534 64.1881 59.2666 65.1402 57.4427 65.6687C57.3093 65.7202 57.169 65.7735 56.9728 65.8486C57.1399 65.9476 57.2168 65.9927 57.3096 66.0476C57.3117 66.0684 57.3396 66.1337 57.3183 66.1662C57.0456 66.5841 57.0434 66.5839 56.4859 66.748C56.1446 66.2536 56.1564 66.2639 56.451 65.9364C55.5797 66.0813 54.6567 66.1738 53.7161 66.1471C51.3595 66.0814 49.1282 65.3416 47.2284 64.0375C47.2243 64.1224 47.2145 64.2118 47.1709 64.2978C47.1237 64.167 47.0748 64.0346 47.0271 63.9028C46.9092 63.8183 46.7989 63.7209 46.6835 63.6321C46.6004 63.93 46.5993 64.2536 46.5735 64.6145C46.7127 64.7141 46.8597 64.8008 47.003 64.8943C47.0285 64.7801 47.0544 64.6668 47.0812 64.5531C47.3043 64.7252 47.3078 64.7443 47.0414 64.9196C47.0988 64.9566 47.1547 64.9953 47.2126 65.031C47.3754 65.0852 47.5443 65.1412 47.7457 65.2077C47.7297 65.2478 47.7143 65.2865 47.6979 65.3257C47.9962 65.494 48.298 65.6576 48.608 65.8017C50.1825 66.5323 51.9047 66.9407 53.692 66.9916C57.1494 67.0896 60.4385 65.8351 62.9519 63.4582C63.4954 62.9442 63.9791 62.3845 64.4194 61.7983C64.1758 61.6659 63.9772 61.4243 63.8617 61.1431C63.423 61.7491 62.9282 62.321 62.3731 62.8462Z" fill="#F7941D"/>
<path d="M39.397 27.6045C38.8412 27.5884 38.3608 27.7716 37.955 28.1523C37.5505 28.5335 37.3394 29.004 37.3229 29.5642L37.1938 34.1619C37.1781 34.7186 37.3609 35.1981 37.7423 35.6004C37.8455 35.7094 37.9561 35.8023 38.0721 35.8822C38.1262 35.8719 38.1685 35.8643 38.2317 35.8524C38.0852 35.7245 38.0168 35.666 37.936 35.5955C37.938 35.5741 37.922 35.5061 37.9492 35.4776C38.2935 35.1157 38.2952 35.1171 38.8729 35.055C39.1193 35.6025 39.11 35.5901 38.7599 35.8592C38.6653 35.9316 38.579 36.0135 38.493 36.0964C38.6982 36.1721 38.9152 36.2214 39.1527 36.2287C39.7041 36.2445 40.1826 36.062 40.5883 35.6835C40.993 35.3055 41.2045 34.8359 41.2201 34.2738L41.253 33.0982L39.9351 33.0611L39.9023 34.2237C39.8963 34.425 39.8201 34.5947 39.6731 34.7318C39.5253 34.8693 39.3513 34.9353 39.15 34.9294C38.9486 34.9234 38.7784 34.8485 38.6416 34.7024C38.5035 34.5581 38.4388 34.3847 38.4443 34.1824L38.5745 29.5713C38.58 29.3691 38.6554 29.1998 38.8012 29.0599C38.946 28.9204 39.1196 28.8534 39.321 28.8594C39.5223 28.8654 39.693 28.9412 39.8327 29.0893C39.9724 29.2373 40.0393 29.4109 40.0337 29.6131L40.0058 30.6008L41.3237 30.6379L41.3506 29.6767C41.3657 29.1213 41.1847 28.641 40.8054 28.2358C40.4273 27.8311 39.9577 27.6196 39.397 27.6045ZM37.4647 30.7913C37.4127 30.6462 37.3603 30.5002 37.3083 30.3551C37.3484 30.3397 37.3895 30.3239 37.4297 30.3085C37.4839 30.4537 37.5387 30.5977 37.593 30.743C37.55 30.7596 37.508 30.7757 37.4647 30.7913Z" fill="#F7941D"/>
<path d="M44.2372 36.2625L44.6003 34.3352L45.9262 34.3734L46.169 36.3179L46.8035 36.3362C46.6586 36.2044 46.5309 36.0882 46.417 35.9847C46.4783 35.7152 46.6269 35.6034 46.8396 35.729C47.09 35.8781 47.0121 36.0884 46.923 36.3401L47.5061 36.3569L47.3385 35.1512C47.2464 35.069 47.1752 34.9588 47.1455 34.7839C47.1897 34.7442 47.2298 34.6996 47.2704 34.6537L46.3325 27.8944L44.5855 27.8442L42.9152 36.226L44.2372 36.2625ZM45.7729 33.1315L44.8323 33.1048L45.3968 29.7963L45.7729 33.1315Z" fill="#F7941D"/>
<path d="M49.2538 36.4105L50.5238 36.4468L50.6759 31.0495L52.0741 35.8232C52.0833 35.7297 52.0916 35.6419 52.1009 35.5462C52.3564 35.5418 52.5688 35.5379 52.7803 35.5343C52.4222 34.9149 52.4284 34.9091 53.1156 34.5685C53.1877 34.8653 53.0299 35.0155 52.8419 35.1814C52.7742 35.2405 52.7969 35.401 52.7807 35.5168C52.767 35.8943 52.7388 36.2388 52.487 36.5022L53.6353 36.5344L53.8731 28.1052L52.6032 28.0689L52.4433 33.7344L50.9169 28.022L49.4907 27.9817L49.2538 36.4105ZM52.8305 30.3257C52.7994 30.2921 52.7972 30.2314 52.7824 30.1823C52.846 30.1897 52.9119 30.1896 52.9719 30.2093C52.9819 30.2128 52.9634 30.2993 52.9585 30.3478C52.914 30.3423 52.8538 30.3508 52.8305 30.3257Z" fill="#F7941D"/>
<path d="M56.708 36.6243L57.0711 34.6969L58.3976 34.7338L58.6404 36.6783L59.9757 36.7159L59.8732 35.9764C59.7685 36.1113 59.6654 36.2444 59.5475 36.3891C59.5011 36.3497 59.382 36.2678 59.3899 36.2527C59.5263 35.9978 59.664 35.7434 59.8056 35.4907L58.8018 28.2524L57.0542 28.2036L55.384 36.5854L56.708 36.6243ZM56.6231 31.4789C56.6251 31.0759 56.6263 30.8181 56.6287 30.4658C57.0951 30.6829 57.1866 30.9664 57.0923 31.3078C57.0729 31.3763 56.8689 31.3931 56.6231 31.4789ZM57.4306 30.1311C57.5829 30.2307 57.7092 30.341 57.8151 30.4618L57.8667 30.1585L57.9187 30.6193C58.1602 30.9731 58.2558 31.4008 58.2062 31.925C58.1451 31.8473 58.0948 31.7696 58.0401 31.6916L58.2434 33.4923L57.6464 33.4759C57.4974 33.5684 57.3456 33.6621 57.1787 33.7663C57.0209 33.3479 57.2936 33.0748 57.3689 32.7661C57.3766 32.7348 57.4042 32.7018 57.437 32.6711L57.6998 31.1286C57.5513 30.8145 57.453 30.4884 57.4306 30.1311Z" fill="#F7941D"/>
<path d="M62.0703 30.4801C62.1745 30.4838 62.3794 30.7142 62.3582 30.7705C62.2434 31.0674 62.1556 31.404 61.8699 31.5743L61.8104 33.6721C62.0375 33.9356 62.2629 34.1976 62.5127 34.4874C62.1433 34.7408 61.9351 34.8262 61.78 34.7537L61.7507 35.796C61.7771 36.0868 61.7869 36.3054 61.7957 36.5191C61.773 36.5295 61.7516 36.5405 61.7288 36.5509L61.7226 36.7621L63.7189 36.819C64.2702 36.8348 64.7461 36.6512 65.1467 36.2684C65.5482 35.8851 65.7558 35.414 65.7722 34.8591L65.896 30.4561C65.9121 29.9057 65.7315 29.4264 65.3552 29.0209C64.9781 28.6158 64.5125 28.4059 63.9567 28.3898L61.9595 28.3333L61.8985 30.4934C61.9534 30.4849 62.0077 30.4777 62.0703 30.4801ZM63.9619 29.6871C64.1588 29.6927 64.3262 29.7688 64.4628 29.9171C64.6002 30.0649 64.6653 30.2393 64.6603 30.4403L64.5352 34.8504C64.5296 35.0473 64.4565 35.2167 64.3127 35.359C64.1695 35.5 63.998 35.5693 63.7963 35.5624L63.0297 35.541L63.1953 29.6657L63.9619 29.6871Z" fill="#F7941D"/>
<path d="M67.4928 36.9264L68.7875 36.9623L68.9483 36.1061C68.8813 35.9033 68.814 35.7028 68.7455 35.4964C68.849 35.4852 68.9598 35.4733 69.0696 35.4617L69.1496 35.0353L69.2973 35.0395C69.2997 34.8689 69.2731 34.7436 69.1895 34.54C69.1601 34.7554 69.0248 34.905 68.7631 35.0049C68.6697 34.4984 68.6808 34.4517 69.0782 34.2874C69.052 34.229 69.0249 34.1709 68.9929 34.1008C69.194 33.9404 69.377 33.6252 69.6431 34.023C69.7747 34.2197 69.8659 34.1444 70.0422 34.0947C70.2973 34.0235 70.4939 34.2574 70.3754 34.4768C70.2724 34.6683 70.1925 34.8633 70.1271 35.062L70.4748 35.0717L70.5481 35.6556C70.6301 35.5473 70.741 35.425 70.8926 35.273C71.086 35.4228 71.2377 35.5421 71.4565 35.7117C71.3254 35.9796 71.1861 36.2616 71.0467 36.5459C70.8672 36.451 70.7318 36.3715 70.628 36.2951L70.7176 37.0162L72.0543 37.0543L70.8807 28.5917L69.1327 28.542L67.622 36.1275C67.5734 36.4329 67.5354 36.6668 67.4928 36.9264ZM68.3952 36.4705C68.0786 36.4654 67.9316 36.463 67.6629 36.4588C67.8054 36.2846 67.9115 36.1113 67.9425 36.1234C68.0635 36.1732 68.1608 36.2813 68.3952 36.4705ZM68.3744 35.4931C68.4027 35.5831 68.392 35.6859 68.3968 35.7845C68.3275 35.7816 68.2595 35.7792 68.1428 35.7742C68.1595 35.6462 68.1724 35.5512 68.1852 35.4562C68.2516 35.4679 68.3658 35.4642 68.3744 35.4931ZM70.3223 33.8316L69.3807 33.8053L69.9453 30.4969L70.3223 33.8316Z" fill="#F7941D"/>
<path d="M36.8606 78.5285C36.7868 78.2961 36.7947 78.0626 36.9081 77.7858C37.2211 78.0032 37.3127 78.2553 37.3192 78.5607C37.8216 78.5468 38.262 78.3714 38.6356 78.0201C39.0414 77.6394 39.2521 77.1681 39.2676 76.6082L39.3372 74.1505C39.2635 74.0316 39.2348 73.8932 39.2489 73.7328C39.2516 73.7025 39.2935 73.6755 39.3523 73.6449L39.3986 72.0097C39.4147 71.454 39.2318 70.9745 38.8508 70.5678C38.4692 70.1623 37.9991 69.9521 37.4388 69.9357C36.8879 69.9209 36.4094 70.1034 36.0036 70.4841C35.5978 70.8647 35.387 71.3361 35.3715 71.896L35.2414 76.4941C35.2341 76.7446 35.2737 76.9781 35.3467 77.1979C35.4228 77.0358 35.5249 76.8922 35.6066 76.7409C35.8587 77.0416 35.8941 77.0963 35.5439 77.6228C35.6134 77.7315 35.6944 77.8366 35.787 77.9359C36.086 78.2585 36.4466 78.4521 36.8606 78.5285ZM39.1277 74.9512C38.4334 74.6611 38.1102 74.1215 38.04 73.3266C38.5814 73.8026 38.965 74.3023 39.1277 74.9512ZM35.6778 73.4631C36.1618 73.6968 35.8328 74.0459 35.9496 74.3698C35.4639 74.1217 35.5348 73.8256 35.6778 73.4631ZM36.6153 71.9052C36.6212 71.7039 36.6975 71.5342 36.8444 71.3971C36.9914 71.26 37.1662 71.1936 37.3689 71.2001C37.5703 71.206 37.7396 71.2814 37.8768 71.4261C38.007 71.564 38.0687 71.73 38.0695 71.9188C38.2829 71.7252 38.4835 71.5423 38.7176 71.3305C38.9484 71.7136 38.7297 72.0315 38.7107 72.3484C38.7044 72.4462 38.5508 72.5935 38.4474 72.6101C38.3417 72.6265 38.1769 72.5385 38.1071 72.445C38.0859 72.4169 38.0772 72.3827 38.0612 72.3514L37.9422 76.5579C37.9362 76.7593 37.8618 76.9282 37.7162 77.0659C37.5714 77.2031 37.3971 77.2682 37.1961 77.2632C36.9948 77.2572 36.8236 77.1827 36.6837 77.0369C36.5448 76.8907 36.4773 76.7184 36.4833 76.5171L36.6153 71.9052Z" fill="#F7941D"/>
<path d="M43.7817 71.4969L45.126 71.5351L45.1628 70.2585L41.197 70.1466L41.1602 71.4232L42.5108 71.461L42.3089 78.6063L43.5799 78.6422L43.7817 71.4969ZM43.4952 74.0609C43.485 74.0597 43.4866 73.9715 43.4826 73.9223C43.5272 73.9203 43.5851 73.9008 43.6128 73.9208C43.6498 73.9477 43.6624 74.0074 43.6864 74.0527C43.6228 74.0583 43.5579 74.0687 43.4952 74.0609ZM43.257 76.7478C43.3256 76.7489 43.423 76.7229 43.4545 76.7575C43.5042 76.8128 43.5097 76.9078 43.5329 76.9826C43.3747 76.9817 43.2878 76.9914 43.2838 76.979C43.2642 76.9049 43.2639 76.825 43.257 76.7478Z" fill="#F7941D"/>
<path d="M49.4976 71.6614L50.8419 71.6996L50.8786 70.4229L46.9129 70.311L46.8761 71.5877L48.228 71.626L48.1936 72.8401C48.22 72.9071 48.2297 72.9885 48.1973 73.1099C48.186 73.1059 48.0261 78.7713 48.0261 78.7713L49.2961 78.8076L49.4976 71.6614Z" fill="#F7941D"/>
<path d="M56.9793 79.0274L55.8056 70.5649L54.0581 70.5161L52.9113 76.2711C53.1951 76.4227 53.0209 76.5591 52.9595 76.6859C52.9643 76.7056 52.9682 76.7256 52.973 76.7452C52.9431 76.7251 52.95 76.7049 52.9595 76.6859C52.9389 76.5938 52.9161 76.4908 52.8904 76.3781L52.3883 78.8988L53.7106 78.9363L54.0737 77.0089L55.4005 77.0467L55.6433 78.9912L56.9793 79.0274ZM54.3937 71.2647C54.4357 71.1329 54.4791 71.0016 54.5211 70.8697C54.5653 70.8851 54.6098 70.9014 54.654 70.9168C54.6041 71.0454 54.5547 71.1727 54.5048 71.3013C54.4676 71.2895 54.43 71.2769 54.3937 71.2647ZM54.3053 75.7776L54.6129 73.9757C54.289 73.7346 54.0305 73.4711 54.1493 72.9283C54.5189 73.1386 54.618 73.1985 54.6857 73.5501L54.8702 72.4701L55.2472 75.8048L54.3053 75.7776Z" fill="#F7941D"/>
<path d="M65.0736 71.7421C65.1447 71.5205 65.2061 71.3277 65.2646 71.1437C65.3366 71.1531 65.3964 71.162 65.4576 71.1715L65.5182 70.845L65.038 70.8314C64.9919 70.9033 64.9463 70.9739 64.895 71.0544C64.7725 70.9458 64.6495 70.8698 64.526 70.8167L64.1859 70.8072L63.4415 75.2965L62.9039 70.7705L61.573 70.7333L60.8336 75.227L60.2954 70.6969L58.9645 70.6596L60.1368 79.1216L61.3522 79.1565L62.1584 74.5413L62.5387 77.5234C62.6207 77.4703 62.7359 77.4219 62.9004 77.3565C62.8752 77.4241 62.8526 77.4875 62.8291 77.5512C62.8514 77.5161 62.8746 77.4806 62.8981 77.4429C62.9242 77.7434 62.9408 77.9366 62.9653 78.2174C62.7806 78.1203 62.7055 78.0268 62.6903 77.9292C62.6671 77.9939 62.6424 78.0602 62.6172 78.1279L62.7537 79.1972L63.9633 79.2313L65.3361 71.8311C65.248 71.8035 65.1593 71.7772 65.0736 71.7421Z" fill="#F7941D"/>
<path d="M69.7004 70.9585C69.7886 71.0758 69.8457 71.2307 69.8583 71.4537C69.8748 71.7387 70.1809 72.0076 70.3839 72.3307C70.0988 72.5343 69.8077 72.7414 69.5184 72.9478L69.8876 76.2187L69.5923 76.2103C69.5856 76.2519 69.5694 76.2942 69.5713 76.3356C69.5789 76.5358 69.6958 76.731 69.7995 77.0257C69.3226 76.6907 69.1838 76.5056 69.3493 76.203L68.947 76.192L69.4985 72.9624C69.4066 73.0283 69.3153 73.0928 69.2234 73.1586C68.7845 72.353 68.7293 72.2503 69.0785 71.7317C69.1479 71.6297 69.1976 71.5585 69.2567 71.4759C69.1581 71.2937 69.0642 71.1203 68.9656 70.9381L68.7007 70.9302L67.0305 79.3119L68.3537 79.349L68.5456 78.3341C68.5151 78.2861 68.4781 78.2407 68.4485 78.1923C68.2365 77.8394 68.3132 77.7128 68.8402 77.3061C68.869 77.3473 68.8977 77.3884 68.9271 77.4283L70.0427 77.4598L70.2855 79.4043L71.6209 79.4419L70.4473 70.9794L69.7004 70.9585ZM70.1462 74.6899C70.1969 74.8053 70.2462 74.9202 70.2969 75.0356C70.2602 75.0517 70.224 75.0687 70.1868 75.0862C70.1329 74.9732 70.0785 74.8593 70.0246 74.7463C70.0641 74.7268 70.1054 74.7088 70.1462 74.6899Z" fill="#F7941D"/>
<path d="M24.9773 52.2967L25.1258 47.0274L24.5709 47.0109C24.4906 47.1812 24.3623 47.3268 24.1877 47.4439C24.0122 47.5614 23.8284 47.6272 23.6369 47.6453L23.6213 48.1997L24.2984 48.219L24.1844 52.2743L24.9773 52.2967Z" fill="#F7941D"/>
<path d="M26.935 52.4157C27.2795 52.4256 27.5781 52.3127 27.832 52.0755C28.084 51.839 28.2161 51.5448 28.2269 51.1944L28.2415 50.6587C28.2059 50.6668 28.172 50.6764 28.129 50.6822C28.1095 50.4373 28.1264 50.2757 28.2538 50.2202L28.3068 48.3196C28.3164 47.9718 28.2032 47.6724 27.9673 47.419C27.7304 47.166 27.4366 47.0348 27.0866 47.025C26.7389 47.0154 26.4385 47.129 26.185 47.3672C25.9314 47.6053 25.7993 47.8996 25.7895 48.2495L25.7083 51.1239C25.6987 51.4716 25.8128 51.7706 26.0515 52.0229C26.2902 52.2751 26.585 52.4059 26.935 52.4157ZM26.5725 48.2556C26.5756 48.1289 26.6235 48.0217 26.7133 47.9351C26.804 47.8481 26.9134 47.8064 27.0392 47.8099C27.1649 47.8134 27.2712 47.8616 27.3586 47.9533C27.446 48.045 27.4876 48.1544 27.4836 48.2814L27.4813 48.3786C27.5153 48.3797 27.5484 48.3813 27.5824 48.3824C27.5799 48.5554 27.5783 48.7279 27.5758 48.9008C27.5393 48.9039 27.5027 48.9071 27.4661 48.9102L27.4176 50.6479C27.7498 50.6487 27.6199 50.8404 27.4324 51.0234C27.4248 50.9865 27.4181 50.9493 27.4106 50.9124L27.4039 51.1594C27.4004 51.2852 27.3525 51.3924 27.2609 51.4798C27.1688 51.5662 27.0589 51.6092 26.9331 51.6057C26.8074 51.6022 26.7016 51.5527 26.6156 51.4615C26.5291 51.3695 26.4884 51.2597 26.4918 51.134L26.5725 48.2556Z" fill="#F7941D"/>
<path d="M29.7953 49.9943L28.7319 52.5618L29.3794 52.5801L31.7395 46.8814L31.0924 46.864L29.8749 49.8038C29.8977 49.8885 29.9212 49.9718 29.9502 50.0767C29.8807 50.0522 29.8416 50.0229 29.7953 49.9943Z" fill="#F7941D"/>
<path d="M32.838 49.4449C32.9044 49.5301 32.9479 49.5651 32.9906 49.6006L33.0244 48.4246C33.0275 48.2979 33.0754 48.1907 33.1652 48.1041C33.212 48.06 33.2628 48.0283 33.3181 48.0078C33.2178 47.903 33.1382 47.7066 33.0012 47.3466C32.8968 47.4003 32.7831 47.4578 32.6768 47.5123C32.3832 47.7766 32.252 48.0705 32.2418 48.4195L32.2325 48.7574C32.4382 48.9821 33.0228 48.8523 32.838 49.4449Z" fill="#F7941D"/>
<path d="M32.953 50.9602L32.9825 49.9157C32.8902 49.8963 32.8716 49.7904 32.8602 49.5021C32.6339 49.2881 32.4309 49.1228 32.227 48.9579L32.1736 50.8522C32.5848 50.7795 32.8109 50.7905 32.953 50.9602Z" fill="#F7941D"/>
<path d="M34.4195 47.6008C34.2462 47.4158 34.0416 47.2966 33.8071 47.2415C33.7405 47.2505 33.6736 47.2585 33.5979 47.2691C33.7287 47.5797 33.8343 47.8314 33.9417 48.0878C33.8796 48.0971 33.828 48.1032 33.7764 48.1092C33.8991 48.2264 33.9404 48.3348 33.9364 48.4619L33.8554 51.3394C33.8519 51.4651 33.804 51.5723 33.7124 51.6597C33.6203 51.7461 33.5113 51.7887 33.3846 51.7856C33.3202 51.784 33.2625 51.7698 33.2091 51.7453C32.5622 51.8282 32.6145 51.1581 32.1734 50.9209L32.162 51.304C32.1524 51.6517 32.2665 51.9507 32.5052 52.203C32.743 52.4556 33.0378 52.5864 33.3878 52.5962C33.5421 52.6009 33.6847 52.5716 33.8207 52.5265C33.9403 52.1963 34.1349 51.9673 34.4524 51.785C34.4514 51.8956 34.4489 51.9896 34.4443 52.0759C34.5923 51.8756 34.6715 51.642 34.6797 51.3749L34.7609 48.5006C34.7696 48.1532 34.6564 47.8538 34.4195 47.6008Z" fill="#F7941D"/>
<path d="M35.7362 47.662C35.5389 47.8922 35.4348 48.1944 35.4245 48.5694L35.4205 48.6911L36.1969 48.7128L36.2012 48.5759C36.2052 48.4196 36.2387 48.2934 36.301 48.1976C36.3825 48.0723 36.5086 48.0107 36.6759 48.0155C36.9789 48.0241 37.125 48.2008 37.1151 48.5454L37.1124 48.6676C37.1039 48.9446 37.0307 49.1584 36.8926 49.3092C36.7422 49.4747 36.5143 49.5542 36.2082 49.5459L36.1888 50.2252C36.7544 50.2416 37.0307 50.5194 37.0149 51.06L37.0062 51.3706C36.9968 51.7084 36.8097 51.8739 36.4454 51.8635C36.3143 51.8601 36.2082 51.815 36.1281 51.7279C36.0484 51.6417 36.0032 51.5316 35.9968 51.4002L35.9854 51.2146L35.227 51.2526L35.2232 51.3828C35.2133 51.7274 35.3275 52.0264 35.5643 52.2794C35.8012 52.5324 36.0941 52.664 36.4454 52.6743C36.8033 52.6852 37.1143 52.5737 37.3757 52.3388C37.6492 52.0967 37.791 51.7812 37.8023 51.3928L37.8139 50.9762C37.8199 50.7802 37.7911 50.6126 37.7274 50.4733C37.6068 50.2007 37.4292 49.9947 37.1986 49.857C37.313 49.7906 37.4133 49.7083 37.5 49.6089C37.7025 49.3755 37.8084 49.0963 37.8175 48.7683L37.8242 48.545C37.834 48.2059 37.7414 47.9196 37.5455 47.6876C37.3289 47.4285 37.033 47.2949 36.6611 47.2843C36.2667 47.2744 35.9593 47.3996 35.7362 47.662ZM37.3771 50.4312C37.3577 50.463 37.3397 50.4953 37.3203 50.527C37.203 50.4519 37.0853 50.3759 36.968 50.3009C36.978 50.2752 36.9875 50.2485 36.9971 50.2219C37.1242 50.2919 37.2513 50.3618 37.3771 50.4312Z" fill="#F7941D"/>
<path d="M25.6415 58.2758C25.8201 58.637 25.9153 58.8346 25.9265 58.9803L27.4882 59.0244L27.5101 58.2457L25.9505 58.2018C25.9503 58.1933 25.9619 58.169 25.9857 58.1268C26.0351 58.0471 26.1086 57.9391 26.2054 57.801L26.3537 57.5909C26.5318 57.335 26.6664 57.1468 26.7565 57.0266C27.0884 56.5843 27.3007 56.2723 27.3923 56.0898C27.562 55.7607 27.6512 55.4171 27.6611 55.0595C27.6707 54.7118 27.5572 54.4038 27.3187 54.1363C27.0812 53.8685 26.7887 53.7302 26.4419 53.7202C26.0634 53.7092 25.7544 53.8177 25.5153 54.0434C25.2385 54.2987 25.0943 54.6768 25.0797 55.1758L25.0758 55.3136L25.8576 55.3352L25.8636 55.1339C25.866 55.0161 25.8852 54.9153 25.9186 54.8335C26.0177 54.5798 26.1783 54.4576 26.4003 54.4638C26.5543 54.4676 26.6783 54.5301 26.773 54.6502C26.86 54.7647 26.9005 54.9027 26.8967 55.062C26.8907 55.258 26.8353 55.4678 26.7317 55.6919C26.6042 55.9659 26.4125 56.2706 26.1591 56.6038C25.8909 56.9615 25.6932 57.22 25.5686 57.3825L25.3533 57.6741C25.2834 57.7698 25.22 57.8575 25.1642 57.9377C25.0438 58.1104 24.9838 58.2064 24.983 58.2229L24.9616 58.9528L25.5774 58.9701C25.5983 58.7551 25.618 58.5373 25.6415 58.2758Z" fill="#F7941D"/>
<path d="M28.6808 57.896C28.8118 57.9071 28.9328 57.9514 29.0453 58.0123C29.03 57.9645 29.0194 57.9148 29.0211 57.8611L29.0254 57.7058C28.7754 57.6972 28.4881 57.7005 28.3657 57.7368C28.4183 57.4752 28.3618 57.306 28.2586 57.1732L28.2397 57.8512C28.2301 58.1989 28.3443 58.498 28.5824 58.7515C28.7105 58.887 28.8566 58.9848 29.0177 59.0506C28.8871 58.8642 28.8188 58.5506 28.6808 57.896Z" fill="#F7941D"/>
<path d="M29.0623 56.48L29.1047 54.9826C29.1087 54.8556 29.1551 54.75 29.2454 54.6621C29.3362 54.5751 29.4456 54.5335 29.5713 54.5369C29.6971 54.5404 29.8043 54.5883 29.8907 54.6804C29.9776 54.7733 30.0198 54.8814 30.0158 55.0085L29.9342 57.8872C29.9316 58.0126 29.8825 58.1193 29.7917 58.2063C29.6987 58.2931 29.5897 58.3357 29.464 58.3322C29.4411 58.3319 29.4217 58.3215 29.4009 58.3181C29.5656 58.5348 29.6675 58.8119 29.6722 59.1104C29.9286 59.0765 30.1642 58.9895 30.3641 58.8025C30.6175 58.5666 30.7487 58.2727 30.759 57.9215L30.8406 55.0481C30.8503 54.7004 30.7366 54.4 30.5003 54.1457C30.2635 53.8927 29.9696 53.7615 29.6197 53.7517C29.2719 53.7421 28.9716 53.8557 28.718 54.0939C28.464 54.3333 28.3328 54.6272 28.323 54.9772L28.2841 56.3541C28.5118 56.4952 28.7714 56.5324 29.0623 56.48ZM30.5923 57.7208C30.5824 57.7572 30.5735 57.7934 30.5636 57.8298C30.4302 57.8025 30.2973 57.7738 30.1649 57.746C30.1738 57.6915 30.1837 57.6367 30.1932 57.5809C30.3248 57.6274 30.4585 57.6741 30.5923 57.7208Z" fill="#F7941D"/>
<path d="M32.7342 53.9019C32.7729 53.9725 32.8113 54.0421 32.8551 54.1225C32.7296 54.0302 32.6358 53.9596 32.5615 53.8972L32.4312 53.8933C32.3513 54.0645 32.2226 54.2093 32.0471 54.3267C31.8712 54.4433 31.6878 54.51 31.4968 54.5268L31.4813 55.0812L32.1574 55.1009L32.0434 59.1562L32.8373 59.1783L32.9857 53.9089L32.7342 53.9019Z" fill="#F7941D"/>
<path d="M35.5757 58.9752C35.8082 58.7543 35.9364 58.4768 35.9631 58.1415C35.9675 58.1419 35.9929 57.2374 35.9929 57.2374C36.0039 56.8589 35.9345 56.5609 35.7873 56.3446C35.6196 56.0967 35.3619 55.9669 35.012 55.9571C34.7932 55.9507 34.5911 56.0272 34.4037 56.1842L34.4336 55.133C34.4372 55.005 34.4749 54.8966 34.5463 54.81C34.6182 54.7243 34.7167 54.6827 34.8425 54.6862C34.9683 54.6897 35.0643 54.7367 35.1307 54.8273C35.1967 54.9169 35.228 55.0273 35.2243 55.1553L35.2201 55.2846L36.048 55.3079L36.0515 55.1951C36.0611 54.8474 35.9584 54.5501 35.7445 54.3028C35.5219 54.0451 35.2376 53.911 34.8899 53.9013C34.7162 53.897 34.5559 53.925 34.409 53.9886C34.1755 54.0834 33.9936 54.2327 33.8638 54.4352C33.7334 54.639 33.6648 54.8693 33.6573 55.1275L33.613 56.6754C33.6913 56.9135 33.7404 57.1225 33.8053 57.3964C33.7179 57.3414 33.6529 57.299 33.5966 57.2594L33.5757 58.0009C33.566 58.3486 33.6687 58.6459 33.8836 58.8928C34.1032 59.1485 34.388 59.2813 34.7379 59.2911C35.0632 59.3013 35.3432 59.196 35.5757 58.9752ZM35.3016 57.4467C35.3136 57.5023 35.3121 57.5224 35.3078 57.5436C35.3687 57.6602 35.4328 57.782 35.518 57.9449C35.1254 57.8812 35.2795 57.6904 35.3078 57.5436C35.2984 57.5259 35.2889 57.5081 35.2791 57.4895C35.2864 57.4757 35.2937 57.4619 35.3016 57.4467ZM33.8351 57.9322C33.7945 57.7835 33.7549 57.6343 33.714 57.4847C33.7556 57.473 33.7969 57.4603 33.8382 57.4477C33.881 57.5966 33.9234 57.7446 33.9662 57.8935C33.923 57.9069 33.8786 57.9197 33.8351 57.9322ZM34.3507 58.0112L34.3781 57.0487C34.3818 56.9391 34.4124 56.84 34.4705 56.7524C34.5444 56.6453 34.6505 56.5931 34.7883 56.597C34.8845 56.5997 34.9579 56.6257 35.0104 56.6745C35.1202 56.7786 35.1726 56.9062 35.1689 57.058L35.1411 58.0326C35.1378 58.1615 35.1022 58.267 35.032 58.3488C34.9589 58.4393 34.8592 58.4835 34.7313 58.4798C34.6046 58.4767 34.5074 58.4269 34.4404 58.3323C34.3772 58.2469 34.3475 58.1402 34.3507 58.0112ZM34.5172 58.4326C34.7693 58.5831 34.9495 58.7243 34.8186 59.0612C34.4565 58.9559 34.406 58.7539 34.5172 58.4326Z" fill="#F7941D"/>
<path d="M70.1569 48.3C70.0766 48.4702 69.9483 48.6159 69.7737 48.733C69.5981 48.8505 69.4134 48.9166 69.2229 48.9343L69.2073 49.4888L69.8844 49.508L69.8136 52.0365C69.8275 52.0231 69.8395 52.0074 69.8538 51.9951C69.8586 51.9909 69.926 52.0551 69.965 52.0867C69.9124 52.1429 69.8598 52.1991 69.8072 52.2553L69.7943 52.7189C69.8236 52.7296 69.855 52.7351 69.8817 52.7501C69.9011 52.7605 69.8837 52.839 69.8811 52.9881C69.8448 52.9393 69.8187 52.9046 69.7901 52.8666L69.7707 53.5643L70.5646 53.5863L70.713 48.317L70.1569 48.3Z" fill="#F7941D"/>
<path d="M71.7717 48.6484C71.5182 48.8865 71.3874 49.1813 71.3772 49.5303L71.296 52.4046C71.2863 52.7524 71.4005 53.0514 71.6392 53.3037C71.877 53.5563 72.1718 53.6871 72.5217 53.6969C72.7177 53.7029 72.8946 53.6573 73.0611 53.5835C73.0049 53.4704 72.9641 53.379 72.9482 53.285C72.9256 53.1483 72.9926 52.9824 73.0658 52.8551C73.0894 52.8152 73.3074 52.8197 73.3514 52.8741C73.4261 52.9666 73.4728 53.1171 73.46 53.2359C73.4564 53.2666 73.449 53.2988 73.4426 53.3306C73.6782 53.0987 73.8037 52.8148 73.8131 52.4769L73.8943 49.6026C73.904 49.2548 73.7903 48.9545 73.5535 48.7015C73.3166 48.4485 73.0228 48.3173 72.6728 48.3075C72.3266 48.2962 72.0266 48.4107 71.7717 48.6484ZM72.146 50.0124L72.1602 49.5364C72.1633 49.4097 72.2102 49.3028 72.301 49.2159C72.3917 49.1289 72.5002 49.0876 72.626 49.091C72.7526 49.0942 72.8589 49.1424 72.9454 49.2345C73.0327 49.3261 73.0744 49.4355 73.0713 49.5622L73.0231 51.2717C73.2217 51.5684 73.2627 51.8867 73.1946 52.2422C73.1345 52.1459 73.0679 52.0521 73.0046 51.956L72.9912 52.4393C72.9877 52.565 72.9389 52.6726 72.8482 52.7596C72.7552 52.8465 72.6462 52.889 72.5195 52.8859C72.3938 52.8824 72.2884 52.8338 72.2019 52.7418C72.1164 52.6493 72.0748 52.54 72.0782 52.4142L72.1445 50.0931C72.1005 50.1598 71.9709 50.2205 71.7094 50.3366C71.7949 50.1501 71.8796 49.964 71.9734 49.7579C72.0809 49.8803 72.1307 49.9517 72.146 50.0124Z" fill="#F7941D"/>
<path d="M74.9673 53.8692L77.3278 48.1714L76.6803 48.153L74.3198 53.8508L74.9673 53.8692Z" fill="#F7941D"/>
<path d="M80.1724 53.11C80.2283 52.9725 80.2626 52.8244 80.2665 52.6628C80.2332 52.6527 80.2017 52.6548 80.1597 52.658C80.1631 52.7874 80.1671 52.9338 80.1724 53.11Z" fill="#F7941D"/>
<path d="M79.1286 48.4863C78.7809 48.4767 78.4815 48.59 78.227 48.8285C77.9735 49.0667 77.8413 49.3609 77.8325 49.7105L77.8269 49.9074C78.1773 50.0737 78.4029 50.3151 78.4426 50.6696C78.4903 50.6857 78.5379 50.7018 78.586 50.7188L78.6142 49.716C78.6182 49.5889 78.6642 49.4824 78.7549 49.3954C78.8457 49.3085 78.9541 49.2672 79.0808 49.2703C79.207 49.2747 79.3138 49.3216 79.4003 49.4137C79.4877 49.5054 79.5293 49.6147 79.5253 49.7418L79.4893 51.0257C79.5194 51.0544 79.5042 51.0672 79.4879 51.0803L79.4443 52.6193C79.4408 52.745 79.392 52.8526 79.3012 52.9396C79.2092 53.0261 79.0992 53.069 78.9735 53.0655C78.8477 53.062 78.7424 53.0134 78.6559 52.9214C78.5698 52.8302 78.5287 52.7196 78.5322 52.5938L78.5536 51.8272C78.5341 51.8428 78.5179 51.856 78.4974 51.8719C77.802 51.3737 77.7613 51.251 78.1158 50.5584C78.1587 50.5733 78.2037 50.5882 78.2466 50.6031C78.1064 50.3828 77.9659 50.1616 77.8257 49.9414L77.7509 52.5839C77.7413 52.9316 77.8554 53.2306 78.0941 53.4829C78.3328 53.7351 78.6267 53.8663 78.9766 53.8761C79.3212 53.886 79.6203 53.7718 79.8736 53.5359C79.9883 53.4282 80.0758 53.3069 80.1407 53.1754C80.0214 53.1271 79.9221 53.1063 79.9087 53.0631C79.7829 52.6489 79.6758 52.2301 79.5457 51.7474C79.8282 51.7535 80.0135 51.8309 80.144 51.9514C80.0909 51.7483 80.0932 51.5485 80.2779 51.3613C80.3061 51.38 80.3511 49.781 80.3511 49.781C80.3553 49.628 80.3257 49.4877 80.2824 49.3531C80.1526 49.3739 80.0237 49.3944 79.8941 49.4131C79.9718 49.2471 80.06 49.146 80.1548 49.1082C80.108 49.0312 80.0755 48.9494 80.0103 48.88C79.7715 48.6277 79.4777 48.4965 79.1286 48.4863Z" fill="#F7941D"/>
<path d="M81.0141 49.9885L81.7914 50.0098L81.7948 49.8733C81.7997 49.7167 81.8327 49.5918 81.8946 49.4951C81.9761 49.3697 82.1022 49.3082 82.2696 49.313C82.5725 49.3215 82.7186 49.4983 82.7084 49.8419L82.7052 49.9632C82.6968 50.2402 82.6235 50.454 82.4855 50.6048C82.3354 50.7713 82.1076 50.8508 81.8015 50.8424L81.7821 51.5217C82.3486 51.5377 82.6239 51.816 82.6081 52.3565L82.6027 52.562C82.6207 52.5427 82.6354 52.5258 82.6559 52.5045C82.7583 52.6592 82.8551 52.8053 83.0451 53.0916C82.8001 53.0031 82.6447 52.9458 82.5534 52.8946C82.478 53.0769 82.3072 53.1665 82.0383 53.1592C81.9067 53.1548 81.8007 53.1097 81.7209 53.0235C81.6412 52.9373 81.5973 52.8278 81.5896 52.6958L81.5777 52.5115L80.8198 52.5482L80.816 52.6784C80.8071 53.0226 80.9203 53.322 81.1576 53.5759C81.2529 53.6027 81.3141 53.5992 81.3741 53.5951C81.3757 53.6517 81.3779 53.7071 81.3795 53.7637C81.5709 53.8927 81.7884 53.9644 82.0368 53.9716C82.3953 53.9811 82.7053 53.87 82.9671 53.6361C83.241 53.3949 83.3824 53.0785 83.3937 52.6901L83.4053 52.2735C83.4113 52.0775 83.3821 51.909 83.3179 51.771C83.1969 51.4975 83.0201 51.2933 82.7891 51.1547C82.9034 51.0883 83.0033 51.0051 83.0905 50.9066C83.2934 50.6741 83.3989 50.394 83.4079 50.066L83.415 49.8436C83.4249 49.5045 83.3322 49.2182 83.136 48.9853C82.9194 48.7262 82.6238 48.5935 82.2515 48.582C81.86 48.5709 81.5529 48.6971 81.3289 48.9598C81.1315 49.1901 81.0275 49.4922 81.0172 49.8672L81.0141 49.9885Z" fill="#F7941D"/>
<path d="M72.4856 60.2927L73.0772 60.3092L73.0991 59.5305L71.5395 59.4867C71.5392 59.4781 71.5522 59.4544 71.576 59.4122C71.6254 59.3325 71.6989 59.2245 71.7956 59.0864L71.944 58.8763C72.1231 58.62 72.2571 58.4331 72.3468 58.3119C72.6787 57.8697 72.891 57.5577 72.9835 57.3748C73.1523 57.0461 73.2424 56.7021 73.2523 56.3445C73.2619 55.9968 73.1484 55.6888 72.9099 55.4213C72.6724 55.1535 72.38 55.0152 72.0322 55.0056C71.9799 55.0044 71.9386 55.0224 71.8881 55.0259C71.8991 55.1316 71.9097 55.2364 71.924 55.3711C71.8173 55.2982 71.7305 55.229 71.6667 55.1632C71.6705 55.1909 71.6756 55.2191 71.6798 55.2476C71.6414 55.2569 71.603 55.2662 71.5647 55.2754C71.5442 55.2125 71.5228 55.1499 71.5028 55.0879C71.354 55.1414 71.2212 55.2208 71.1046 55.3292C70.8288 55.5841 70.6837 55.9626 70.6691 56.4615L70.6652 56.5994L71.447 56.621L71.453 56.4196C71.4554 56.3019 71.4749 56.202 71.508 56.1192C71.6074 55.8665 71.768 55.7443 71.9896 55.7495C72.144 55.7543 72.2677 55.8159 72.3628 55.9368C72.4203 56.0138 72.4508 56.1039 72.4682 56.2016C72.5187 56.1982 72.5854 56.1946 72.6555 56.1863C72.6262 56.3151 72.6256 56.4137 72.5789 56.4816C72.5627 56.5055 72.5138 56.5072 72.4631 56.5075C72.4394 56.6578 72.3982 56.813 72.3214 56.9786C72.193 57.253 72.0023 57.5572 71.7489 57.8905C71.4806 58.2482 71.283 58.5066 71.1584 58.6691L70.9779 58.9141C71.1938 59.1108 71.2422 59.4207 71.414 59.6495C71.2173 59.7735 71.0584 59.8734 70.9426 59.6074C70.8848 59.4744 70.8293 59.3394 70.7734 59.198C70.6349 59.3976 70.5735 59.4931 70.5728 59.5096L70.5523 60.2391L72.4269 60.2919C72.4215 60.2628 72.4114 60.2356 72.4087 60.2054C72.4334 60.2341 72.459 60.2647 72.4856 60.2927Z" fill="#F7941D"/>
<path d="M74.286 56.8288C74.1471 56.6091 73.9623 56.3985 73.9284 56.1238C73.9218 56.1709 73.9134 56.2164 73.9107 56.2651L73.8295 59.1394C73.8199 59.4872 73.934 59.7862 74.1718 60.0388C74.4102 60.2901 74.704 60.4213 75.054 60.4311C75.3985 60.441 75.698 60.3278 75.9509 60.0909C76.2043 59.855 76.3359 59.562 76.3459 59.2098L76.4275 56.3364C76.4371 55.9887 76.3235 55.6884 76.0876 55.435C75.8507 55.182 75.5568 55.0508 75.2069 55.041C74.8592 55.0314 74.5588 55.145 74.3053 55.3831C74.2117 55.4713 74.1408 55.5696 74.0802 55.6723C74.2928 56.0952 74.2984 56.4616 74.286 56.8288ZM74.8345 55.9506C74.9253 55.8636 75.0333 55.8214 75.1595 55.8258C75.2861 55.829 75.3924 55.8772 75.4798 55.9689C75.5666 56.0619 75.6089 56.1699 75.6048 56.297L75.5233 59.1757C75.5207 59.3011 75.4719 59.4087 75.3798 59.4952C75.2872 59.5829 75.1779 59.6246 75.0521 59.6211C74.9264 59.6176 74.8201 59.5694 74.7345 59.4769C74.649 59.3845 74.6083 59.2748 74.6112 59.1503L74.6928 56.2715C74.6968 56.1445 74.7441 56.0386 74.8345 55.9506Z" fill="#F7941D"/>
<path d="M78.5736 55.1979L78.0191 55.1824C77.9392 55.3536 77.8105 55.4983 77.635 55.6158C77.4591 55.7324 77.2757 55.799 77.0838 55.8162L77.0683 56.3707L77.7453 56.3899L77.6312 60.4452L78.4252 60.4673L78.5736 55.1979Z" fill="#F7941D"/>
<path d="M81.5532 56.5863L81.6332 56.5891L81.6365 56.4786C81.6207 56.5035 81.6148 56.5286 81.5928 56.5539C81.5825 56.5657 81.5674 56.5762 81.5532 56.5863Z" fill="#F7941D"/>
<path d="M81.3735 57.6338C81.2067 57.3856 80.9482 57.2561 80.5982 57.2463C80.3794 57.24 80.1773 57.3164 79.9899 57.4734L80.0198 56.4223C80.0234 56.2943 80.0611 56.1858 80.1316 56.0996C80.2031 56.013 80.3017 55.9714 80.4274 55.9749C80.5541 55.978 80.6502 56.025 80.7165 56.1156C80.782 56.2065 80.8138 56.3156 80.8092 56.444L80.8054 56.5742L81.1621 56.5845C81.1172 56.5121 81.0854 56.4214 81.1019 56.367C81.1511 56.1998 81.2837 56.0567 81.4159 55.8522C81.4779 55.911 81.5267 55.9667 81.5694 56.0205C81.5185 55.8652 81.4413 55.7218 81.3288 55.5928C81.1059 55.3341 80.8216 55.2001 80.4739 55.1904C80.2998 55.1851 80.1398 55.2141 79.993 55.2776C79.7595 55.3724 79.5776 55.5217 79.4482 55.7251C79.3178 55.9289 79.2482 56.1597 79.2417 56.4175L79.1601 59.2909C79.1504 59.6386 79.253 59.9359 79.4679 60.1828C79.6875 60.4385 79.9723 60.5713 80.3223 60.5811C80.6503 60.5902 80.9303 60.4849 81.1619 60.2644C81.3945 60.0435 81.5226 59.766 81.5493 59.4308C81.5534 59.4302 81.5791 58.5267 81.5791 58.5267C81.5901 58.1481 81.522 57.8507 81.3735 57.6338ZM80.6186 59.6389C80.5455 59.7295 80.4458 59.7736 80.3188 59.7696C80.1921 59.7665 80.0949 59.7167 80.0279 59.622C79.9644 59.5357 79.9355 59.4286 79.9388 59.2997L79.9662 58.3372C79.9698 58.2276 80.0005 58.1285 80.0595 58.0405C80.1334 57.9334 80.2385 57.8815 80.3764 57.8855C80.4726 57.8881 80.546 57.9142 80.5984 57.9629C80.7082 58.067 80.7616 58.1943 80.7566 58.3455L80.7288 59.3202C80.7253 59.4513 80.6884 59.5562 80.6186 59.6389Z" fill="#F7941D"/>
</svg>
