<svg xmlns="http://www.w3.org/2000/svg" xml:space="preserve" id="corporate-building" x="0" y="0" enable-background="new 0 0 110 110" version="1.1" viewBox="0 0 110 110"><g id="_x31_7"><polygon fill="#ebf2ff" points="61.855 60.166 63.097 59.444 47.877 50.655 46.634 51.377"></polygon><polygon fill="#cbdbf4" points="46.634 51.377 46.56 77.249 61.781 86.038 61.855 60.166"></polygon><polygon fill="#ebf2ff" points="21.68 81.442 20.695 80.869 20.717 92.125 21.702 92.698"></polygon><path fill="#ebf2ff" d="M34.24178,59.67038l-0.98473-0.57224c0.02269,8.00655-5.59435,17.74825-12.56218,21.77113             l0.98476,0.57227C28.64744,77.41866,34.26448,67.67695,34.24178,59.67038z"></path><polygon fill="#ebf2ff" points="47.641 51.934 46.657 51.362 33.257 59.098 34.242 59.67"></polygon><path fill="#dbe6fa" d="M34.24178,59.67038c0.0227,8.00657-5.59435,17.74828-12.56218,21.77116l0.02199,11.25603             l26.00278-15.01271l-0.06308-25.75068L34.24178,59.67038z"></path><polygon fill="#457aef" points="59.255 24.145 59.161 76.096 35.869 89.632 35.962 37.682"></polygon><polygon fill="#3a63df" points="35.962 37.682 35.869 89.632 22.553 81.944 22.647 29.994"></polygon><polygon fill="#bdc6d7" points="59.255 24.145 35.962 37.682 22.647 29.994 45.939 16.458"></polygon><polygon fill="#dbe6fa" points="61.781 86.038 63.024 85.316 63.097 59.444 61.855 60.166"></polygon><polygon fill="#ebf2ff" points="35.893 89.719 34.909 89.146 34.931 100.402 35.915 100.975"></polygon><polygon fill="#bbcfef" points="24.866 69.5 35.948 75.886 35.942 74.476 24.866 68.091"></polygon><polygon fill="#cbdbf4" points="49.764 66.442 35.942 74.476 35.948 75.886 49.764 67.855"></polygon><polygon fill="#bbcfef" points="24.866 75.047 35.948 81.433 35.942 80.023 24.866 73.638"></polygon><polygon fill="#cbdbf4" points="49.764 71.988 35.942 80.023 35.948 81.433 49.764 73.401"></polygon><polygon fill="#bbcfef" points="24.866 80.594 35.948 86.979 35.942 85.57 24.866 79.185"></polygon><polygon fill="#cbdbf4" points="49.764 77.535 35.942 85.57 35.948 86.979 49.764 78.948"></polygon><path fill="#ebf2ff" d="M48.45547,67.94756l-0.98473-0.57224c0.02269,8.00655-5.59435,17.74825-12.56218,21.77113             l0.98476,0.57227C42.86112,85.69583,48.47817,75.95412,48.45547,67.94756z"></path><polygon fill="#ebf2ff" points="72.648 53.935 71.663 53.363 47.471 67.375 48.455 67.948"></polygon><path fill="#dbe6fa" d="M48.45547,67.94756c0.0227,8.00657-5.59435,17.74828-12.56218,21.77116l0.02199,11.25603             l36.79583-21.24409l-0.06308-25.79564L48.45547,67.94756z"></path><polygon fill="#dbe6fa" points="35.046 101.465 35.898 100.97 35.972 89.627 35.12 90.122"></polygon><polygon fill="#ebf2ff" points="35.12 90.122 35.972 89.627 20.695 80.869 20.099 81.215"></polygon><polygon fill="#cbdbf4" points="20.099 81.215 20.026 92.558 35.046 101.465 35.12 90.122"></polygon><polygon fill="#cbdbf4" points="55.475 63.909 54.49 63.337 54.408 30.043 55.393 30.615"></polygon><polygon fill="#afbcd2" points="55.393 30.615 54.408 30.043 71.581 20.128 72.566 20.7"></polygon><polygon fill="#dbe6fa" points="72.566 20.7 72.648 53.994 55.475 63.909 55.393 30.615"></polygon><polygon fill="#dbe6fa" points="72.648 16.696 72.633 22.089 36.208 43.257 36.224 37.863"></polygon><polygon fill="#cbdbf4" points="36.224 37.863 36.208 43.257 19.415 33.561 19.43 28.168"></polygon><polygon fill="#ebf2ff" points="72.648 16.696 36.224 37.863 19.43 28.168 55.854 7"></polygon><polygon fill="#dbe6fa" points="90.585 56.818 90.516 90.229 75.925 98.708 75.995 65.297"></polygon><polygon fill="#cbdbf4" points="75.995 65.297 75.925 98.708 57.975 88.197 58.045 54.787"></polygon><polygon fill="#ebf2ff" points="90.585 56.818 75.995 65.297 58.045 54.787 72.635 46.308"></polygon><path fill="#cbdbf4" d="M75.92539,86.88132l-0.04495,11.82635c-9.86634,5.73368-25.92457,5.71777-35.85547-0.01584          l0.04493-11.82631C50.0008,92.59911,66.05904,92.61503,75.92539,86.88132z"></path><path fill="#4f91ff" d="M55.60083 94.97129c-4.54503-.25249-9.00022-1.2114-12.83199-2.882v7.95892c3.83442 1.66412 8.28912 2.61713 12.83199 2.86481V94.97129zM72.73354 92.30683v7.92132c-3.99513 1.67276-8.64948 2.57822-13.36292 2.72572v-7.94101c2.22387-.06883 4.42804-.30499 6.55365-.70846C68.31535 93.85179 70.61801 93.18273 72.73354 92.30683z"></path><path fill="#ebf2ff" d="M75.92539,86.88132c-9.86636,5.7337-25.92459,5.71779-35.8555-0.01582l17.84166-10.38447          L75.92539,86.88132z"></path><polygon fill="#bbcfef" points="21.393 28.165 23.428 29.34 55.856 10.495 55.856 8.137"></polygon><polygon fill="#cbdbf4" points="55.856 8.137 55.856 10.495 68.65 17.881 70.685 16.699"></polygon><polygon fill="#cbdbf4" points="72.634 47.447 72.634 49.805 86.611 57.989 88.632 56.815"></polygon><polygon fill="#bbcfef" points="59.997 54.791 62.018 55.974 72.634 49.805 72.634 47.447"></polygon><path fill="#bbcfef" d="M42.09282,86.82703c0.74497,0.3642,1.53223,0.68984,2.33702,0.9977l13.48399-7.84853v-2.35793            L42.09282,86.82703z"></path><path fill="#cbdbf4" d="M57.91383,77.61829v2.35793l13.63967,7.87495c0.80888-0.30894,1.59949-0.63639,2.34663-1.00299            L57.91383,77.61829z"></path><polygon fill="#4f91ff" points="68.65 17.881 55.856 10.495 23.428 29.34 36.221 36.726"></polygon><polygon fill="#4f91ff" points="86.611 57.989 72.634 49.805 62.018 55.974 75.997 64.158"></polygon><path fill="#4f91ff" d="M44.42984,87.82474c8.07766,3.08902,18.79077,3.21021,27.12366,0.02643l-13.63967-7.87495           L44.42984,87.82474z"></path><polygon fill="#bbcfef" points="24.866 41.766 35.948 48.151 35.942 46.742 24.866 40.357"></polygon><polygon fill="#cbdbf4" points="49.764 38.707 35.942 46.742 35.948 48.151 49.764 40.12"></polygon><polygon fill="#bbcfef" points="24.866 47.313 35.948 53.698 35.942 52.289 24.866 45.904"></polygon><polygon fill="#cbdbf4" points="49.764 44.254 35.942 52.289 35.948 53.698 49.764 45.667"></polygon><polygon fill="#bbcfef" points="24.866 52.86 35.948 59.245 35.942 57.835 24.866 51.451"></polygon><polygon fill="#cbdbf4" points="49.764 49.801 35.942 57.835 35.948 59.245 49.764 51.214"></polygon><polygon fill="#bbcfef" points="24.866 58.406 35.948 64.792 35.942 63.382 24.866 56.998"></polygon><polygon fill="#cbdbf4" points="49.764 55.348 35.942 63.382 35.948 64.792 49.764 56.761"></polygon><polygon fill="#bbcfef" points="24.866 63.953 35.948 70.339 35.942 68.929 24.866 62.544"></polygon><polygon fill="#cbdbf4" points="49.764 60.895 35.942 68.929 35.948 70.339 49.764 62.308"></polygon><polygon fill="#cbdbf4" points="59.824 30.583 59.401 30.827 59.412 34.654 59.837 34.917"></polygon><polygon fill="#ebf2ff" points="59.412 34.654 59.412 34.654 56.06 36.59 56.062 37.096 59.837 34.917 59.837 34.917"></polygon><polygon fill="#4f91ff" points="59.401 30.827 56.049 32.762 56.06 36.59 59.412 34.654"></polygon><polygon fill="#cbdbf4" points="65.368 27.382 64.945 27.626 64.956 31.453 65.381 31.716"></polygon><polygon fill="#ebf2ff" points="64.956 31.453 64.956 31.454 61.604 33.389 61.606 33.895 65.381 31.716 65.381 31.716"></polygon><polygon fill="#4f91ff" points="64.945 27.626 61.594 29.561 61.604 33.389 64.956 31.454"></polygon><polygon fill="#cbdbf4" points="70.912 24.181 70.489 24.425 70.5 28.253 70.925 28.515"></polygon><polygon fill="#ebf2ff" points="70.5 28.253 70.5 28.253 67.149 30.188 67.15 30.694 70.925 28.515 70.925 28.515"></polygon><polygon fill="#4f91ff" points="70.489 24.425 67.138 26.361 67.149 30.188 70.5 28.253"></polygon><polygon fill="#cbdbf4" points="59.824 38.134 59.401 38.379 59.412 42.206 59.837 42.468"></polygon><polygon fill="#ebf2ff" points="59.412 42.206 59.412 42.206 56.06 44.141 56.062 44.648 59.837 42.468 59.837 42.468"></polygon><polygon fill="#4f91ff" points="59.401 38.379 56.049 40.314 56.06 44.141 59.412 42.206"></polygon><polygon fill="#cbdbf4" points="65.368 34.933 64.945 35.178 64.956 39.005 65.381 39.267"></polygon><polygon fill="#ebf2ff" points="64.956 39.005 64.956 39.005 61.604 40.94 61.606 41.447 65.381 39.267 65.381 39.267"></polygon><polygon fill="#4f91ff" points="64.945 35.178 61.594 37.113 61.604 40.94 64.956 39.005"></polygon><polygon fill="#cbdbf4" points="70.912 31.733 70.489 31.977 70.5 35.804 70.925 36.066"></polygon><polygon fill="#ebf2ff" points="70.5 35.804 70.5 35.804 67.149 37.739 67.15 38.246 70.925 36.066 70.925 36.066"></polygon><polygon fill="#4f91ff" points="70.489 31.977 67.138 33.912 67.149 37.739 70.5 35.804"></polygon><polygon fill="#cbdbf4" points="59.824 45.686 59.401 45.93 59.412 49.757 59.837 50.02"></polygon><polygon fill="#ebf2ff" points="59.412 49.757 59.412 49.757 56.06 51.692 56.062 52.199 59.837 50.02 59.837 50.02"></polygon><polygon fill="#4f91ff" points="59.401 45.93 56.049 47.865 56.06 51.692 59.412 49.757"></polygon><polygon fill="#cbdbf4" points="65.368 42.485 64.945 42.729 64.956 46.556 65.381 46.819"></polygon><polygon fill="#ebf2ff" points="64.956 46.556 64.956 46.556 61.604 48.491 61.606 48.998 65.381 46.819 65.381 46.819"></polygon><polygon fill="#4f91ff" points="64.945 42.729 61.594 44.664 61.604 48.491 64.956 46.556"></polygon><polygon fill="#cbdbf4" points="70.912 39.284 70.489 39.528 70.5 43.355 70.925 43.618"></polygon><polygon fill="#ebf2ff" points="70.5 43.355 70.5 43.355 67.149 45.29 67.15 45.797 70.925 43.618 70.925 43.618"></polygon><polygon fill="#4f91ff" points="70.489 39.528 67.138 41.463 67.149 45.29 70.5 43.355"></polygon><polygon fill="#cbdbf4" points="83.167 63.016 82.709 63.281 82.721 67.426 83.18 67.71"></polygon><polygon fill="#ebf2ff" points="82.721 67.426 82.721 67.426 79.09 69.522 79.092 70.071 83.18 67.71 83.18 67.71"></polygon><polygon fill="#4f91ff" points="82.709 63.281 79.078 65.377 79.09 69.522 82.721 67.426"></polygon><polygon fill="#cbdbf4" points="89.172 59.549 88.714 59.813 88.726 63.959 89.185 64.243"></polygon><polygon fill="#ebf2ff" points="88.726 63.959 88.726 63.959 85.095 66.055 85.097 66.604 89.185 64.243 89.185 64.243"></polygon><polygon fill="#4f91ff" points="88.714 59.813 85.083 61.91 85.095 66.055 88.726 63.959"></polygon><polygon fill="#cbdbf4" points="83.167 71.195 82.709 71.46 82.721 75.605 83.18 75.889"></polygon><polygon fill="#ebf2ff" points="82.721 75.605 82.721 75.605 79.09 77.701 79.092 78.25 83.18 75.889 83.18 75.889"></polygon><polygon fill="#4f91ff" points="82.709 71.46 79.078 73.556 79.09 77.701 82.721 75.605"></polygon><polygon fill="#cbdbf4" points="89.172 67.728 88.714 67.993 88.726 72.138 89.185 72.422"></polygon><polygon fill="#ebf2ff" points="88.726 72.138 88.726 72.138 85.095 74.234 85.097 74.783 89.185 72.422 89.185 72.422"></polygon><polygon fill="#4f91ff" points="88.714 67.993 85.083 70.089 85.095 74.234 88.726 72.138"></polygon><polygon fill="#cbdbf4" points="83.167 79.374 82.709 79.639 82.721 83.784 83.18 84.069"></polygon><polygon fill="#ebf2ff" points="82.721 83.784 82.721 83.784 79.09 85.88 79.092 86.429 83.18 84.069 83.18 84.069"></polygon><polygon fill="#4f91ff" points="82.709 79.639 79.078 81.735 79.09 85.88 82.721 83.784"></polygon><polygon fill="#cbdbf4" points="89.172 75.907 88.714 76.172 88.726 80.317 89.185 80.602"></polygon><polygon fill="#ebf2ff" points="88.726 80.317 88.726 80.317 85.095 82.413 85.097 82.962 89.185 80.602 89.185 80.602"></polygon><polygon fill="#4f91ff" points="88.714 76.172 85.083 78.268 85.095 82.413 88.726 80.317"></polygon><polygon fill="#cbdbf4" points="83.167 87.554 82.709 87.818 82.721 91.964 83.18 92.248"></polygon><polygon fill="#ebf2ff" points="82.721 91.964 82.721 91.964 79.09 94.06 79.092 94.608 83.18 92.248 83.18 92.248"></polygon><polygon fill="#4f91ff" points="82.709 87.818 79.078 89.914 79.09 94.06 82.721 91.964"></polygon><polygon fill="#cbdbf4" points="89.172 84.087 88.714 84.351 88.726 88.496 89.185 88.781"></polygon><polygon fill="#ebf2ff" points="88.726 88.496 88.726 88.497 85.095 90.593 85.097 91.141 89.185 88.781 89.185 88.781"></polygon><polygon fill="#4f91ff" points="88.714 84.351 85.083 86.447 85.095 90.593 88.726 88.497"></polygon><polygon fill="#bbcfef" points="70.602 63.62 71.001 63.851 70.991 67.459 70.591 67.707"></polygon><polygon fill="#ebf2ff" points="70.991 67.459 70.991 67.459 74.151 69.284 74.15 69.762 70.591 67.707 70.591 67.707"></polygon><polygon fill="#4f91ff" points="71.001 63.851 74.161 65.675 74.151 69.284 70.991 67.459"></polygon><polygon fill="#bbcfef" points="65.375 60.602 65.774 60.833 65.763 64.441 65.363 64.689"></polygon><polygon fill="#ebf2ff" points="65.763 64.441 65.763 64.441 68.924 66.266 68.922 66.743 65.363 64.689 65.363 64.689"></polygon><polygon fill="#4f91ff" points="65.774 60.833 68.934 62.657 68.924 66.266 65.763 64.441"></polygon><polygon fill="#bbcfef" points="60.147 57.584 60.546 57.815 60.536 61.423 60.136 61.67"></polygon><polygon fill="#ebf2ff" points="60.536 61.423 60.536 61.423 63.696 63.248 63.695 63.725 60.136 61.67 60.136 61.67"></polygon><polygon fill="#4f91ff" points="60.546 57.815 63.706 59.639 63.696 63.248 60.536 61.423"></polygon><polygon fill="#bbcfef" points="70.602 70.74 71.001 70.971 70.991 74.579 70.591 74.827"></polygon><polygon fill="#ebf2ff" points="70.991 74.579 70.991 74.579 74.151 76.404 74.15 76.882 70.591 74.827 70.591 74.827"></polygon><polygon fill="#4f91ff" points="71.001 70.971 74.161 72.795 74.151 76.404 70.991 74.579"></polygon><polygon fill="#bbcfef" points="65.375 67.722 65.774 67.953 65.763 71.561 65.363 71.809"></polygon><polygon fill="#ebf2ff" points="65.763 71.561 65.763 71.561 68.924 73.386 68.922 73.863 65.363 71.809 65.363 71.809"></polygon><polygon fill="#4f91ff" points="65.774 67.953 68.934 69.777 68.924 73.386 65.763 71.561"></polygon><polygon fill="#bbcfef" points="60.147 64.704 60.546 64.935 60.536 68.543 60.136 68.79"></polygon><polygon fill="#ebf2ff" points="60.536 68.543 60.536 68.543 63.696 70.368 63.695 70.845 60.136 68.79 60.136 68.79"></polygon><polygon fill="#4f91ff" points="60.546 64.935 63.706 66.759 63.696 70.368 60.536 68.543"></polygon><polygon fill="#bbcfef" points="70.602 77.86 71.001 78.091 70.991 81.699 70.591 81.947"></polygon><polygon fill="#ebf2ff" points="70.991 81.699 70.991 81.699 74.151 83.524 74.15 84.001 70.591 81.947 70.591 81.947"></polygon><polygon fill="#4f91ff" points="71.001 78.091 74.161 79.915 74.151 83.524 70.991 81.699"></polygon><polygon fill="#bbcfef" points="65.375 74.842 65.774 75.073 65.763 78.681 65.363 78.929"></polygon><polygon fill="#ebf2ff" points="65.763 78.681 65.763 78.681 68.924 80.506 68.922 80.983 65.363 78.929 65.363 78.929"></polygon><polygon fill="#4f91ff" points="65.774 75.073 68.934 76.897 68.924 80.506 65.763 78.681"></polygon><polygon fill="#bbcfef" points="60.147 71.824 60.546 72.055 60.536 75.663 60.136 75.91"></polygon><polygon fill="#ebf2ff" points="60.536 75.663 60.536 75.663 63.696 77.488 63.695 77.965 60.136 75.91 60.136 75.91"></polygon><polygon fill="#4f91ff" points="60.546 72.055 63.706 73.879 63.696 77.488 60.536 75.663"></polygon><polygon fill="#dbe6fa" points="49.598 19.741 49.6 20.277 51.494 21.378 51.492 20.841"></polygon><polygon fill="#cbdbf4" points="51.492 20.841 51.494 21.378 57.995 17.625 57.993 17.088"></polygon><polygon fill="#fff" points="49.598 19.741 51.492 20.841 57.993 17.088 56.099 15.987"></polygon><path fill="#3d4449" d="M51.48771,18.06556l0.02092,1.42093c0.00018,0.06546,0.04302,0.13082,0.12858,0.18055        c0.16936,0.09842,0.45159,0.09845,0.62496-0.00165c0.08578-0.04953,0.12862-0.11553,0.12844-0.18142l-0.02091-1.42092        c0.00018,0.06589-0.04266,0.13189-0.12844,0.18141c-0.17337,0.1001-0.4556,0.10007-0.62496,0.00165        C51.53073,18.19638,51.4879,18.13102,51.48771,18.06556z"></path><path fill="#4f575f" d="M51.61834,17.90543c-0.17337,0.1001-0.17427,0.26356-0.00204,0.36365        c0.16936,0.09842,0.45159,0.09845,0.62496-0.00165c0.17047-0.09842,0.17135-0.2619,0.00199-0.36032        C52.07101,17.80702,51.78881,17.80701,51.61834,17.90543z"></path><path fill="#3d4449" d="M53.19487,11.0489l0.02092,7.37798c0.00019,0.06546,0.04302,0.13082,0.12858,0.18055        c0.16936,0.09842,0.45159,0.09845,0.62496-0.00165c0.08578-0.04953,0.12862-0.11552,0.12844-0.18142l-0.02091-7.37796        c0.00018,0.06589-0.04266,0.13189-0.12844,0.18141c-0.17337,0.1001-0.4556,0.10007-0.62496,0.00165        C53.23788,11.17972,53.19505,11.11436,53.19487,11.0489z"></path><path fill="#4f575f" d="M53.32549,10.88877c-0.17337,0.1001-0.17427,0.26356-0.00205,0.36365        c0.16936,0.09842,0.45159,0.09845,0.62496-0.00165c0.17048-0.09842,0.17136-0.2619,0.00199-0.36032        C53.77817,10.79036,53.49596,10.79035,53.32549,10.88877z"></path><path fill="#3d4449" d="M54.90202,12.96781l0.02092,4.39945c0.00018,0.08843,0.04301,0.1538,0.12857,0.20352        c0.16937,0.09842,0.45159,0.09845,0.62496-0.00165c0.08578-0.04953,0.12862-0.11553,0.12844-0.20439L55.784,12.96529        c0.00018,0.08886-0.04266,0.15486-0.12844,0.20439c-0.17337,0.1001-0.4556,0.10007-0.62496,0.00165        C54.94504,13.12161,54.90221,13.05624,54.90202,12.96781z"></path><path fill="#4f575f" d="M55.03265,12.80768c-0.17337,0.1001-0.17427,0.26356-0.00205,0.36365        c0.16936,0.09842,0.45159,0.09845,0.62496-0.00165c0.17048-0.09842,0.17136-0.2619,0.00199-0.36032        C55.48532,12.70927,55.20312,12.70926,55.03265,12.80768z"></path><polygon fill="#dbe6fa" points="77.433 59.16 77.431 59.697 75.537 60.798 75.539 60.261"></polygon><polygon fill="#cbdbf4" points="75.539 60.261 75.537 60.798 69.037 57.044 69.038 56.508"></polygon><polygon fill="#fff" points="77.433 59.16 75.539 60.261 69.038 56.508 70.932 55.407"></polygon><path fill="#3d4449" d="M75.54349,57.4851l-0.02092,1.42093c-0.00018,0.06546-0.04301,0.13082-0.12857,0.18055        c-0.16937,0.09842-0.45159,0.09845-0.62497-0.00165c-0.08578-0.04953-0.12862-0.11552-0.12843-0.18142l0.02091-1.42092        c-0.00018,0.06589,0.04266,0.13189,0.12844,0.18142c0.17338,0.10009,0.4556,0.10007,0.62496,0.00165        C75.50047,57.61592,75.5433,57.55056,75.54349,57.4851z"></path><path fill="#4f575f" d="M75.41286,57.32497c0.17337,0.1001,0.17427,0.26356,0.00204,0.36365        c-0.16936,0.09843-0.45158,0.09845-0.62496-0.00165c-0.17047-0.09842-0.17136-0.2619-0.00199-0.36032        C74.96019,57.22657,75.24239,57.22655,75.41286,57.32497z"></path><path fill="#3d4449" d="M73.83633,50.46844l-0.02092,7.37798c-0.00018,0.06546-0.04301,0.13083-0.12858,0.18055        c-0.16936,0.09843-0.45158,0.09845-0.62496-0.00165c-0.08578-0.04953-0.12862-0.11552-0.12843-0.18142l0.02091-7.37796        c-0.00018,0.06589,0.04266,0.13189,0.12844,0.18141c0.17337,0.1001,0.4556,0.10007,0.62496,0.00165        C73.79332,50.59927,73.83615,50.53391,73.83633,50.46844z"></path><path fill="#4f575f" d="M73.70571,50.30832c0.17337,0.1001,0.17427,0.26356,0.00204,0.36365        c-0.16936,0.09842-0.45159,0.09845-0.62496-0.00165c-0.17047-0.09842-0.17136-0.2619-0.00199-0.36032        C73.25303,50.2099,73.53523,50.20989,73.70571,50.30832z"></path><path fill="#3d4449" d="M72.12918,52.38735l-0.02092,4.39945c-0.00018,0.08844-0.04301,0.1538-0.12858,0.20352        c-0.16936,0.09842-0.45158,0.09845-0.62496-0.00165c-0.08578-0.04953-0.12862-0.11553-0.12843-0.2044l0.02091-4.39944        c-0.00018,0.08886,0.04266,0.15486,0.12844,0.20439c0.17337,0.1001,0.4556,0.10007,0.62496,0.00165        C72.08616,52.54115,72.129,52.47579,72.12918,52.38735z"></path><path fill="#4f575f" d="M71.99856,52.22723c0.17337,0.1001,0.17427,0.26356,0.00204,0.36365        c-0.16936,0.09842-0.45159,0.09845-0.62496-0.00165c-0.17048-0.09842-0.17136-0.2619-0.00199-0.36032        C71.54588,52.12881,71.82808,52.1288,71.99856,52.22723z"></path><polygon fill="#dbe6fa" points="27.485 28.919 27.487 29.523 29.257 30.552 29.256 29.947"></polygon><polygon fill="#cbdbf4" points="29.256 29.947 29.257 30.552 31.113 29.481 31.111 28.876"></polygon><polygon fill="#fff" points="27.485 28.919 29.256 29.947 31.111 28.876 29.34 27.847"></polygon><path fill="#4f575f" d="M28.88239,28.63271c-0.23214,0.13403-0.23335,0.3529-0.00274,0.48691     c0.22677,0.13179,0.60466,0.13182,0.8368-0.00221c0.22826-0.13178,0.22944-0.35067,0.00266-0.48246     C29.48851,28.50094,29.11065,28.50092,28.88239,28.63271z"></path><polygon fill="#dbe6fa" points="30.886 30.895 30.888 31.499 32.658 32.528 32.656 31.924"></polygon><polygon fill="#cbdbf4" points="32.656 31.924 32.658 32.528 34.514 31.457 34.512 30.853"></polygon><polygon fill="#fff" points="30.886 30.895 32.656 31.924 34.512 30.853 32.741 29.824"></polygon><path fill="#4f575f" d="M32.28325,30.60907c-0.23214,0.13403-0.23335,0.3529-0.00274,0.48691     c0.22678,0.13179,0.60466,0.13182,0.8368-0.00221c0.22826-0.13178,0.22944-0.35067,0.00266-0.48246     C32.88937,30.47731,32.51151,30.47729,32.28325,30.60907z"></path><polygon fill="#dbe6fa" points="52.949 86.148 52.951 86.753 54.721 87.781 54.719 87.177"></polygon><polygon fill="#cbdbf4" points="54.719 87.177 54.721 87.781 56.577 86.71 56.575 86.106"></polygon><polygon fill="#fff" points="52.949 86.148 54.719 87.177 56.575 86.106 54.804 85.077"></polygon><path fill="#4f575f" d="M54.34613,85.86229c-0.23214,0.13403-0.23335,0.3529-0.00274,0.48692     c0.22678,0.13179,0.60466,0.13182,0.83681-0.0022c0.22826-0.13179,0.22943-0.35068,0.00266-0.48246     C54.95225,85.73052,54.57439,85.73051,54.34613,85.86229z"></path><polygon fill="#dbe6fa" points="59.016 86.148 59.018 86.753 60.788 87.781 60.786 87.177"></polygon><polygon fill="#cbdbf4" points="60.786 87.177 60.788 87.781 62.643 86.71 62.641 86.106"></polygon><polygon fill="#fff" points="59.016 86.148 60.786 87.177 62.641 86.106 60.871 85.077"></polygon><path fill="#4f575f" d="M60.41284,85.86229c-0.23214,0.13403-0.23335,0.3529-0.00274,0.48692     c0.22678,0.13179,0.60466,0.13182,0.8368-0.0022c0.22826-0.13179,0.22944-0.35068,0.00266-0.48246     C61.01896,85.73052,60.6411,85.73051,60.41284,85.86229z"></path><path fill="#3a63df" d="M72.73354 92.30683v7.92132l-6.82896-5.9139c0 0 .00985-.00985.0197-.00985C68.31535 93.85179 70.61801 93.18273 72.73354 92.30683zM42.76884 92.08929v7.92132l6.82896-5.80108c0 0-.00985-.00985-.0197-.00985C47.18703 93.74708 44.88436 92.96519 42.76884 92.08929z"></path></g></svg>